<svg width="186" height="60" viewBox="0 0 186 60" fill="none" xmlns="http://www.w3.org/2000/svg">
<g clip-path="url(#clip0_1111_1734)">
<path d="M151.622 26.1193C146.03 26.9569 147.605 25.0281 143.963 20.7555C141.29 21.8851 142.181 23.7294 141.935 26.0808C140.768 26.3344 139.569 26.3114 138.386 26.1346L138.332 7.24631C139.5 7.04652 140.537 7.10031 141.881 7.17715L142.104 18.0429L147.305 12.756C148.112 11.9338 149.963 12.6869 151.031 12.6485L146.23 18.2888L151.63 26.1193H151.622ZM141.29 13.3939C141.413 11.2883 141.543 9.78986 141.259 7.98402C140.768 7.76885 139.415 7.57674 139.139 8.02244C138.716 9.8667 139.139 11.6034 138.985 13.4553C139.846 13.5552 140.522 13.6705 141.29 13.3862V13.3939Z" fill="#4A3226"/>
<path d="M99.9523 7.63045C99.814 7.90709 100.229 7.83793 100.382 7.8533C102.572 8.14531 104.131 10.2662 104.308 12.3103C104.446 13.9547 102.964 15.4378 102.257 16.8133C102.426 17.3897 103.647 17.6279 103.563 18.3425C102.818 18.0198 101.834 17.6509 101.397 16.8902C102.564 15.4148 103.747 14.0085 103.432 12.2795C103.309 11.6033 103.524 10.0741 102.434 10.0049C101.773 9.95883 101.028 10.3661 100.505 10.1125C98.3621 9.04439 103.486 8.06846 90.5032 8.299C90.3266 9.66682 90.3573 10.6197 90.6185 11.8415C91.1793 11.8492 92.178 12.195 92.5544 11.7339C93.0384 11.1345 92.8463 10.3354 93.6606 10.3354L93.6299 10.8195C93.5377 12.2642 93.361 13.7319 93.7374 15.2995L97.2559 15.4839C98.2161 15.5377 99.6604 15.3994 100.183 14.5695C100.89 13.4552 100.306 12.1796 100.029 11.196C100.559 11.1269 100.813 11.7109 101.204 11.8569C101.12 13.2093 101.012 15.0843 99.3992 15.7222C98.0317 16.2677 96.3724 15.676 94.8129 16.0372C94.329 16.1525 94.037 17.1591 94.4749 17.3436C96.2418 18.0966 99.9139 16.4752 101.151 19.1417C99.2071 17.7508 96.6643 18.3656 93.5838 18.3272C93.3149 19.9332 93.1459 21.4624 93.3226 22.9686C92.37 24.006 93.0691 18.965 92.7618 18.3886C91.9859 18.2196 91.356 18.2119 90.4572 18.3656L90.4341 25.4583H97.5478C97.6553 24.8743 97.64 24.4593 97.5631 23.8984C96.0651 23.5295 92.9615 24.5592 93.6529 23.007C95.7041 23.0685 98.0394 23.5218 100.114 22.7611C101.458 22.2693 101.181 20.4173 101.143 19.1494C101.32 19.2647 101.589 19.3953 101.758 19.6489C102.249 20.3635 102.687 20.3328 103.478 19.9793C103.932 19.7795 103.932 18.9189 103.555 18.3502C105.061 19.4337 105.238 21.5546 104.761 22.9993C104.201 24.6822 102.518 25.8195 100.705 26.0654C100.16 26.1422 89.6659 26.7262 89.5583 25.5505C89.9271 23.2298 89.7427 8.08383 89.858 7.99162C90.1422 7.76109 90.6723 7.57666 91.2407 7.57666L99.9523 7.63814V7.63045Z" fill="#472C1D"/>
<path d="M120.21 17.8279C119.972 17.6435 119.503 17.9124 119.503 18.2813L119.473 25.0743C119.473 25.4124 119.519 25.7198 119.703 25.8504C119.841 25.9426 120.133 25.812 120.295 25.7889C119.549 26.7572 118.036 26.1501 116.622 26.0425L116.507 17.8663C116.492 16.7828 115.946 15.9529 115.117 15.6071C114.395 15.3074 113.58 15.3919 112.804 15.853C109.647 17.751 111.475 22.2618 110.853 25.835C109.801 26.3038 108.887 26.2116 108.003 26.1809L107.949 15.4841C108.894 15.707 109.77 15.4841 110.3 14.708C110.899 14.4852 111.498 14.3007 111.929 13.7705C113.511 11.8033 117.137 11.6573 119.019 13.5092C120.202 14.6696 120.102 16.4524 120.21 17.8202V17.8279Z" fill="#472C1D"/>
<path d="M129.836 17.8816C130.143 18.8421 125.58 17.5204 126.21 19.6029C128.33 18.9267 130.804 18.627 131.503 20.2868C130.235 19.7182 128.653 19.6336 127.17 20.0716C126.095 20.3867 125.603 21.4933 125.849 22.377C126.072 23.1838 126.832 23.7678 127.823 23.8447C129.92 24.0061 131.618 22.6843 131.633 20.7479C132.594 20.9861 131.603 22.3693 132.033 22.8841C132.747 23.7448 133.708 24.6131 135.121 24.8052C134.322 22.2079 134.023 19.9871 134.437 17.4974C134.606 16.483 133.953 15.6224 133.831 14.8232C133.807 14.6925 133.861 14.5542 133.846 14.4236C135.682 15.3765 134.553 20.3483 135.267 22.5076C135.597 23.5066 136.719 25.4584 135.59 26.1577C134.122 27.0645 132.279 26.2192 131.756 24.5363C129.767 26.3498 127.285 27.0491 124.827 26.0501C123.237 25.4046 122.3 23.9753 122.246 22.4692C122.192 20.963 122.945 19.3493 124.481 18.5885C126.156 17.7586 128.192 17.3052 129.836 17.8969V17.8816Z" fill="#472C1D"/>
<path d="M157.369 12.2873C157.484 12.3334 157.66 12.5409 157.73 12.6485C157.929 12.9559 158.521 13.148 159.112 13.294C159.704 13.44 159.827 14.0932 159.666 14.5158C159.435 15.1075 156.908 14.1777 157.392 15.1997C157.43 15.2842 157.361 15.4379 157.361 15.5378C157.138 15.3841 156.915 15.6147 156.915 15.9374L156.938 22.9917C157.153 23.1531 157.599 23.0378 157.76 23.0148C157.853 22.9994 158.006 23.0225 158.114 23.0301C157.891 23.8216 158.352 23.9292 159.097 23.8985C159.635 23.8754 159.811 23.6449 159.689 23.0455C159.919 23.0301 160.395 22.6306 160.68 22.9687C161.048 23.4067 161.448 24.7515 161.202 25.3969C159.673 26.5112 157.223 26.9261 155.678 25.9425C156.132 25.2586 154.726 25.0127 154.664 24.544C154.25 21.4164 154.703 18.3119 154.472 15.1536L153.72 15.4533C153.282 15.63 152.129 15.484 152.083 14.9077C152.022 14.1316 151.807 13.2786 152.183 12.6792C152.398 12.3334 153.32 12.4717 153.72 12.3718C154.035 12.2873 154.457 12.3872 154.495 12.0798C154.595 11.1884 153.958 9.22123 154.772 8.75248C155.171 8.52195 156.132 8.545 156.7 8.7909C157.384 9.08291 156.278 12.0875 157.376 12.295L157.369 12.2873Z" fill="#4E311F"/>
<path d="M125.895 12.7175C125.734 13.0249 126.333 13.2554 126.586 13.1402C127.869 12.5101 132.763 13.0556 133.823 14.8231C133.946 15.6222 134.599 16.4906 134.43 17.4972C134.015 19.987 134.314 22.2078 135.113 24.8051C133.7 24.6207 132.74 23.7447 132.025 22.884C131.603 22.3692 132.586 20.986 131.626 20.7478C131.58 20.6094 131.549 20.402 131.495 20.2944C130.796 18.6345 128.322 18.9265 126.202 19.6105C125.572 17.528 130.135 18.8497 129.828 17.8891C130.059 17.9737 130.381 17.8584 130.627 17.8891C130.604 18.1812 130.535 18.5731 130.834 18.696C131.08 18.7959 131.349 18.696 131.418 18.4885C131.48 18.3195 131.434 18.0736 131.418 17.8738C131.395 17.0746 131.318 16.1448 130.712 15.5992C128.829 13.9086 125.987 15.2841 123.982 16.2677C123.675 15.6453 122.906 14.6924 123.245 14.0546C123.736 13.1325 125.057 12.9557 125.887 12.7175H125.895Z" fill="#4E311F"/>
<path d="M165.996 26.1885H163.714L163.591 13.4477C164.075 12.9175 165.197 13.0481 166.049 13.2095L165.988 26.1885H165.996Z" fill="#502D18"/>
<path d="M165.996 26.1885L166.057 13.2095C165.197 13.0481 164.083 12.9175 163.599 13.4477L163.722 26.1962C163.407 26.2961 162.961 26.3191 162.892 26.0348C162.808 25.7197 162.823 14.4467 163.23 12.6869C164.236 12.4564 165.412 12.5179 166.556 12.6024C166.795 14.1316 167.11 26.0886 166.633 26.25C166.426 26.3191 166.172 26.1962 165.996 26.1962V26.1885Z" fill="#5C4A3D"/>
<path d="M111.929 13.7857C111.506 14.3159 110.899 14.5003 110.3 14.7232C110.208 12.6638 110.584 10.6043 110.262 8.26826C110.169 7.59203 107.965 7.6074 107.957 8.30668L107.942 15.4993L107.995 26.196C107.68 26.1883 107.243 26.4035 107.166 26.0193C107.12 25.7888 107.074 9.18271 107.396 7.24623C108.518 7.04644 109.647 7.02338 110.838 7.33844L111.114 13.947C111.514 14.0239 111.691 13.778 111.921 13.778L111.929 13.7857Z" fill="#372317"/>
<path d="M165.711 7.20798C166.195 8.29917 166.172 9.52099 166.034 10.689H163.706L163.66 7.11576C164.567 7.05429 165.135 7.09271 165.711 7.20029V7.20798Z" fill="#472C1D"/>
<path d="M155.671 25.9426C155.148 25.6122 153.804 25.082 153.796 24.252L153.712 15.4457L154.465 15.146C154.695 18.2966 154.242 21.4011 154.657 24.5364C154.718 25.0051 156.124 25.2587 155.671 25.9349V25.9426Z" fill="#372317"/>
<path d="M154.48 8.01472C154.403 8.42199 154.941 8.45273 154.91 8.04545C155.579 8.09156 156.239 8.05314 156.9 7.94556C157.015 8.09156 157.154 8.2222 157.299 8.34515L157.376 12.2949C156.278 12.0951 157.376 9.08285 156.7 8.79084C156.124 8.54494 155.172 8.52189 154.772 8.75242C153.958 9.22117 154.595 11.1884 154.495 12.0798C154.457 12.3872 154.035 12.2873 153.72 12.3718C154.142 10.4814 153.274 8.19914 154.48 8.0224V8.01472Z" fill="#372317"/>
<path d="M120.21 17.8279C120.41 20.479 120.218 23.1378 120.287 25.7966C120.126 25.812 119.834 25.9503 119.695 25.8581C119.511 25.7351 119.465 25.4201 119.465 25.082L119.496 18.2889C119.496 17.9201 119.972 17.6511 120.202 17.8355L120.21 17.8279Z" fill="#372317"/>
<path d="M133.846 14.4159C133.854 14.5465 133.807 14.6925 133.83 14.8155C132.77 13.0481 127.877 12.5025 126.594 13.1326C126.348 13.2555 125.741 13.0173 125.903 12.71C131.902 10.9733 133.055 13.9933 133.854 14.4082L133.846 14.4159Z" fill="#372317"/>
<path d="M157.753 23.007C157.591 23.0301 157.146 23.153 156.931 22.984L156.908 15.9297C156.908 15.6069 157.13 15.3841 157.353 15.5301C157.3 18.0352 157.015 20.5941 157.753 23.007Z" fill="#372317"/>
<path d="M166.034 10.6965C166.172 9.52079 166.203 8.30665 165.711 7.21546C167.209 6.40091 166.272 9.11352 166.871 10.6581C166.434 10.8271 166.226 10.6965 166.026 10.6965H166.034Z" fill="#5C4A3D"/>
<path d="M163.66 7.12329L163.706 10.6965C162.4 10.6965 162.708 8.46807 162.892 7.39993C162.938 7.12329 163.276 7.14634 163.66 7.12329Z" fill="#5C4A3D"/>
<path d="M157.392 15.1997C156.908 14.17 159.435 15.0998 159.666 14.5158C159.835 14.0931 159.727 13.4399 159.112 13.2939C158.498 13.1479 157.929 12.9558 157.73 12.6484L160.034 12.7483C160.134 13.5859 160.134 14.2391 160.034 15.0767L157.384 15.1997H157.392Z" fill="#372317"/>
<path d="M159.681 23.0378C159.804 23.6449 159.619 23.8677 159.089 23.8908C158.344 23.9215 157.883 23.814 158.106 23.0225C158.575 23.0532 159.228 23.0686 159.681 23.0378Z" fill="#372317"/>
<path d="M131.434 17.8738C131.434 18.0736 131.487 18.3118 131.434 18.4885C131.357 18.696 131.096 18.7882 130.85 18.696C130.55 18.5807 130.627 18.1888 130.642 17.8891C130.904 17.9276 131.18 17.8584 131.441 17.8815L131.434 17.8738Z" fill="#472C1D"/>
<path d="M157.299 8.33759C157.154 8.22232 157.023 8.084 156.9 7.938C157.023 7.91494 157.215 7.90726 157.476 7.938C157.791 7.9841 157.714 8.31454 157.299 8.3299V8.33759Z" fill="#4E311F"/>
<path d="M154.48 8.01469C154.588 7.99932 154.78 8.03006 154.91 8.04542C154.941 8.46038 154.403 8.42196 154.48 8.01469Z" fill="#4E311F"/>
<path d="M100.39 7.84565C100.229 7.83028 99.8217 7.89944 99.9599 7.6228C100.19 7.68428 100.306 7.83028 100.39 7.84565Z" fill="#8A7B6E"/>
<path d="M141.29 13.3939C140.522 13.6705 139.846 13.5629 138.985 13.463C139.139 11.6111 138.716 9.8744 139.139 8.03014C139.415 7.58444 140.768 7.76887 141.259 7.99172C141.543 9.79756 141.413 11.296 141.29 13.4016V13.3939Z" fill="#502D18"/>
<path d="M103.432 12.2719C102.787 12.3718 103.064 13.1787 102.372 13.7012C101.942 12.6869 101.911 12.1106 101.197 11.8493C100.805 11.7033 100.551 11.1193 100.021 11.1884C99.7218 11.2269 99.4529 10.8273 99.1994 10.7888C99.2225 10.4507 98.8691 10.3124 98.4158 10.3124L93.6452 10.3278C92.8309 10.3278 93.0153 11.127 92.539 11.7263C92.1703 12.1874 91.1639 11.8416 90.6031 11.8339C90.3419 10.6121 90.3112 9.65155 90.4879 8.2914C103.471 8.06087 98.3467 9.03679 100.49 10.1049C101.012 10.3662 101.758 9.95893 102.418 9.99735C103.509 10.0665 103.294 11.5957 103.417 12.2719H103.432Z" fill="#502D18"/>
<path d="M103.432 12.272C103.747 14.0087 102.572 15.4073 101.397 16.8827C101.827 17.6434 102.81 18.0123 103.563 18.335C103.939 18.9037 103.939 19.7643 103.486 19.9641C102.687 20.3099 102.257 20.3483 101.765 19.6337C101.589 19.3801 101.32 19.2572 101.151 19.1342C99.9062 16.4677 96.2418 18.0891 94.475 17.336C94.0371 17.1516 94.329 16.145 94.813 16.0297C96.3724 15.6608 98.0318 16.2525 99.3992 15.7146C101.02 15.0691 101.128 13.2018 101.205 11.8494C101.919 12.1106 101.95 12.6793 102.38 13.7013C103.071 13.1788 102.795 12.3796 103.44 12.272H103.432Z" fill="#4E311F"/>
<path d="M93.3226 22.9687C93.4378 22.9457 93.5454 22.9995 93.6529 22.9995C92.9615 24.5517 96.0651 23.522 97.5631 23.8909C97.6476 24.4518 97.6553 24.8668 97.5477 25.4585H90.4341L90.4571 18.3581C91.3559 18.2044 91.9859 18.2121 92.7618 18.3811C93.0691 18.9651 92.3777 23.9984 93.3226 22.961V22.9687Z" fill="#502D18"/>
<path d="M99.2071 10.7889C97.348 10.6967 95.4813 10.6814 93.6299 10.812L93.6606 10.3279L98.4312 10.3125C98.8845 10.3125 99.2302 10.4508 99.2148 10.7889H99.2071Z" fill="#372317"/>
<path d="M110.3 14.7232C109.77 15.507 108.894 15.7299 107.949 15.4993L107.965 8.30671C107.965 7.60743 110.177 7.59206 110.269 8.26829C110.592 10.6044 110.208 12.6638 110.308 14.7232H110.3Z" fill="#502D18"/>
<path d="M107.081 41.127C107.081 46.2449 102.933 50.3945 97.8167 50.3945C92.7004 50.3945 88.552 46.2449 88.552 41.127C88.552 36.0092 92.7004 31.8596 97.8167 31.8596C102.933 31.8596 107.081 36.0092 107.081 41.127ZM102.096 44.8386C103.74 42.1798 103.432 38.6911 101.327 36.4703C99.1994 34.2264 95.4967 34.6106 93.7298 37.0543C92.2471 39.106 92.1472 41.6265 93.0384 43.9011C93.7835 45.8069 95.32 47.0364 97.1406 47.2438C98.9613 47.4513 100.92 46.7367 102.096 44.8463V44.8386Z" fill="#472C1D"/>
<path d="M126.233 36.8622C126.125 37.0159 125.856 37.208 125.841 37.4001C125.641 39.8898 127.27 38.0917 128.676 40.9733C127.178 40.1895 125.88 39.0522 124.335 39.6977C122.791 40.3432 121.839 41.9262 121.923 43.7782C122 45.4687 122.983 46.8289 124.458 47.3898C125.933 47.9508 127.846 47.3284 128.53 45.6762C129.098 44.3007 128.637 42.856 128.676 40.9657L131.718 41.0041C131.941 43.7782 131.495 50.064 132.233 50.9247C131.741 53.6911 129.713 55.6352 126.602 56.0502C123.729 56.4267 120.656 55.9887 118.689 53.5681C118.72 52.815 119.388 52.3693 119.549 51.7546C120.994 51.1552 123.536 55.105 127.308 52.7305C128.522 51.9698 129.198 50.2408 128.468 48.9037C126.287 51.0553 121.985 51.209 119.849 48.6501C117.529 45.876 117.752 41.3422 119.88 38.6757C121.554 36.5702 124.09 36.0169 126.241 36.8468L126.233 36.8622Z" fill="#472C1D"/>
<path d="M154.419 42.3794L154.219 50.2252C153.044 50.4327 151.838 50.4865 150.731 50.1714L150.693 36.8082C151.784 36.6468 152.859 36.4778 153.804 36.8774C154.111 37.1617 153.912 37.8763 154.265 38.299C156.247 36.6084 158.905 35.9014 161.394 36.9773C164.851 38.468 163.184 46.7518 163.499 50.279C162.231 50.4404 161.148 50.425 159.996 50.2406L159.873 41.7877C159.865 41.0884 159.435 40.4506 159.12 40.1586C157.376 38.5756 154.457 41.0423 154.426 42.3794H154.419Z" fill="#4A3226"/>
<path d="M176.221 43.1786C176.105 45.0459 176.935 46.4444 178.095 47.1437C181.583 49.2416 181.268 44.4311 186 47.0438C185.14 49.3645 182.82 50.3942 180.407 50.594C175.813 50.9783 172.28 47.7277 172.426 43.2324C172.572 38.9444 176.228 35.7708 180.891 36.5469C182.927 36.885 184.832 37.7457 185.831 39.882C180.93 42.7021 182.343 38.4373 178.625 39.6745C177.419 40.0741 176.344 41.2575 176.221 43.1709V43.1786Z" fill="#472C1D"/>
<path d="M143.825 42.0336C144.224 44.0393 141.106 41.5342 138.663 42.9404C139.216 44.0623 143.364 42.5024 143.671 44.2621C142.112 44.1853 138.302 43.3016 138.117 45.945C138.048 46.9286 138.832 47.7201 139.938 47.9507C141.467 48.2657 142.627 47.382 143.717 46.5828C143.825 47.7585 145.446 48.0506 146.76 47.528L146.406 39.8897C146.36 38.9752 145.169 39.5208 144.847 39.8128C143.564 40.9809 144.939 41.7877 143.825 42.0413C143.856 40.297 142.995 39.298 141.628 39.0828C139.761 38.7908 138.209 39.4747 136.588 40.443C136.143 40.0818 135.144 38.5833 135.659 38.1376C137.979 36.3241 141.205 36.1013 143.902 36.8851C148.757 38.2913 146.836 43.8702 147.505 46.506C147.797 47.6663 148.811 48.7268 148.089 50.1638C147.758 50.8093 146.521 50.5864 145.653 50.5019C145.077 50.4404 144.701 49.7795 144.04 48.7422C142.304 50.425 140.153 51.0321 137.848 50.425C135.843 49.8948 134.614 48.2503 134.583 46.3677C134.553 44.4389 135.882 42.9481 137.833 42.2642C139.853 41.5495 141.843 42.1182 143.825 42.049V42.0336Z" fill="#472C1D"/>
<path d="M117.199 39.6208C115.939 40.1434 113.435 40.1741 113.004 41.9723C112.374 44.5927 113.089 47.3667 112.72 50.2407C111.721 50.5327 110.508 50.4175 109.271 50.2868L109.194 36.939C110.239 36.5163 111.345 36.6623 112.428 36.8468C112.605 37.4999 112.405 38.0302 112.858 38.7141C114.049 37.2617 115.509 36.2243 117.406 36.6239C117.483 37.4538 117.821 38.6757 117.206 39.6208H117.199Z" fill="#4E311F"/>
<path d="M170.075 50.2406C168.946 50.3712 167.862 50.3405 166.579 50.2867C166.395 45.7682 166.395 41.365 166.603 36.8312C167.786 36.739 168.769 36.8082 170.021 36.862C170.567 41.2959 170.597 45.6991 170.075 50.2406ZM169.629 49.3799L169.737 37.7687C169.737 36.9542 167.163 37.1002 167.163 37.7841V49.426C167.163 50.1483 169.622 50.1176 169.629 49.3876V49.3799Z" fill="#4A3226"/>
<path d="M132.225 50.9322C131.487 50.0716 131.933 43.7857 131.71 41.0116C131.626 39.9281 132.263 38.7524 131.71 37.5383C131.51 37.0926 130.857 37.2386 130.435 37.2616C130.012 37.2847 129.867 37.9302 129.482 38.4066C128.607 39.5055 127.362 36.9773 125.841 37.3923C125.856 37.2001 126.125 37.008 126.233 36.8543C127.016 37.154 127.931 37.0541 128.699 38.3451C129.244 37.8533 129.121 37.4384 129.306 36.8236C130.335 36.6776 131.272 36.716 132.286 36.9005C132.601 41.6571 133.039 46.3907 132.233 50.9245L132.225 50.9322Z" fill="#372317"/>
<path d="M170.167 34.7181C168.946 34.964 167.855 34.8949 166.603 34.8411C166.434 33.6807 166.426 32.6818 166.579 31.4446C167.901 31.2217 169.015 31.3831 170.421 31.4753C169.983 32.5127 170.044 33.381 170.167 34.7181ZM168.416 34.38C169.33 34.5337 169.914 33.9497 169.906 33.2735C169.906 32.9046 170.052 32.0593 169.399 31.8826C169.038 31.7827 168.462 31.9517 167.878 32.0824C167.14 32.2514 167.086 33.0583 167.156 33.6193C167.225 34.1802 167.739 34.2724 168.416 34.38Z" fill="#4A3226"/>
<path d="M131.71 41.0118L128.668 40.9733C127.27 38.0917 125.641 39.8898 125.833 37.4001C127.354 36.9774 128.607 39.5056 129.475 38.4144C129.859 37.9303 130.005 37.2925 130.427 37.2694C130.85 37.2464 131.495 37.1004 131.703 37.5461C132.256 38.7602 131.626 39.9436 131.703 41.0194L131.71 41.0118Z" fill="#4E311F"/>
<path d="M143.717 46.5752V46.1603C143.971 46.1603 144.447 46.2755 144.547 45.9605C144.624 45.6838 144.685 45.1613 144.347 45.046C144.201 44.9999 143.994 44.9615 143.794 44.9231L143.679 44.2622C143.372 42.5025 139.223 44.0624 138.67 42.9405C141.113 41.5266 144.232 44.0317 143.833 42.0337C144.939 41.7801 143.564 40.9656 144.854 39.8052C145.177 39.5132 146.368 38.9676 146.414 39.8821L146.767 47.5204C145.461 48.043 143.833 47.7509 143.725 46.5752H143.717Z" fill="#4E311F"/>
<path d="M169.629 49.38C169.629 50.1101 167.163 50.1408 167.163 49.4185V37.7766C167.163 37.0926 169.745 36.9466 169.737 37.7612L169.629 49.3723V49.38Z" fill="#472C1D"/>
<path d="M168.416 34.3799C167.74 34.2647 167.225 34.1648 167.156 33.6192C167.087 33.0736 167.14 32.2437 167.878 32.0823C168.462 31.9517 169.045 31.7826 169.399 31.8825C170.052 32.0669 169.898 32.9045 169.906 33.2734C169.906 33.9496 169.33 34.5336 168.416 34.3799Z" fill="#502D18"/>
<path d="M143.718 46.1603L143.794 44.9231C143.994 44.9615 144.209 44.9999 144.347 45.046C144.678 45.1536 144.624 45.6839 144.547 45.9605C144.455 46.2832 143.971 46.168 143.718 46.1603Z" fill="#472C1D"/>
<path d="M8.45798 38.9907H8.85745C8.91123 39.4441 9.60262 40.0435 9.5258 40.7043C9.34143 42.3642 10.7473 43.2709 11.2005 44.4543C12.1147 46.8288 13.121 48.9036 15.1338 50.6557C16.3245 51.6931 17.3078 53.1147 18.9518 53.5988C19.6201 53.7986 20.1963 52.9456 20.4344 52.4999C20.6111 52.8304 21.2257 52.7535 21.4485 52.546C22.1706 53.3913 23.3306 53.6449 23.9221 54.5671C23.9221 55.9041 25.0668 56.6726 26.5494 56.7802C29.6914 57.0184 34.2469 57.3565 36.7359 55.6736C37.6578 55.0512 37.5656 53.6603 38.0419 52.8765C39.563 54.7592 45.6011 56.4036 49.9416 55.8657C54.812 55.2586 59.7516 54.0829 63.4007 50.9861C64.8756 50.3867 65.7283 49.2648 66.9498 48.1582C68.4786 46.775 69.6232 45.4917 70.5451 43.8242C76.0532 36.8468 77.5896 25.1126 72.5117 17.4052L69.7999 15.0537C67.4952 12.4487 62.9781 13.1864 60.4046 15.5071C55.2192 20.1869 59.5365 24.0138 57.785 31.4216C56.94 30.0768 57.2165 28.3017 57.5315 26.7187C57.9002 24.8821 55.7339 21.3089 58.0155 17.4129C57.2319 16.606 56.4867 17.8355 56.141 17.0747C57.424 13.6244 60.5659 11.3806 64.1766 10.9041C72.1045 9.86674 76.8828 17.1977 77.8738 24.7822C80.2322 42.856 66.0203 58.6014 47.7982 58.563C44.3105 58.563 41.1993 57.9713 38.1802 56.1808C24.5137 61.5138 11.5539 52.523 8.43494 38.9907H8.45798Z" fill="#472C1D"/>
<path d="M55.3881 30.5993C55.3267 31.337 55.7031 32.0593 54.812 33.2888C54.4893 33.7345 56.1333 33.9958 56.5405 33.7883C55.9105 35.233 54.5969 35.963 53.506 36.985C53.5521 36.0706 52.976 35.2868 52.2922 34.5798C51.8928 33.1966 52.7071 31.9133 52.5688 30.5916L52.1156 26.2268C52.0541 25.6121 50.6944 25.8887 50.341 25.9348C47.4525 15.8529 46.0467 11.7417 36.0599 7.02345C34.5619 6.31649 33.1714 5.90921 31.9038 4.59518C31.5966 5.29446 31.5581 5.82468 31.5581 6.36259C30.9128 6.23964 30.2752 6.0629 29.6222 6.00911C29.5992 5.64794 29.6299 4.29548 29.1613 5.15614H28.7618C28.7081 5.06393 28.5621 4.85645 28.5007 4.93329C28.3854 5.07929 28.3316 5.46352 28.3624 5.55573H27.9629C27.6249 5.48657 27.4252 5.88616 27.164 5.95532C26.0654 6.25501 25.0514 6.96966 23.876 7.46147C21.4484 8.48349 19.3973 9.77448 17.5843 11.5112C17.4614 11.6264 17.277 11.711 17.1772 11.857H16.8161C16.4551 11.5726 16.0709 11.2806 15.7176 11.2038C13.7586 10.7735 8.47331 19.5721 12.3835 18.3272L10.3862 25.0665C9.82536 24.6515 9.13397 24.8974 8.52708 25.128C8.59622 24.8129 8.35808 24.3672 8.05847 24.2673C8.58854 20.11 10.3324 16.2909 12.8521 12.7099C18.4063 4.81034 23.9451 6.2627 28.7234 0.776016C29.507 -0.123062 30.8744 -0.315172 31.7118 0.622328C36.7974 6.3088 42.6819 4.93329 48.0133 12.9328C52.3307 19.4107 53.4062 26.3959 52.8684 34.0112C54.5892 33.2043 54.6583 31.6981 55.3958 30.5993H55.3881Z" fill="#472C1D"/>
<path d="M57.8081 31.4291C57.5776 32.4204 56.8939 32.9737 56.5405 33.7882C56.1334 33.9957 54.4894 33.7344 54.8121 33.2887C55.7109 32.0592 55.3268 31.3292 55.3882 30.5992C56.2025 21.3625 53.5215 24.1827 56.1641 17.0823C56.5021 17.843 57.255 16.6135 58.0386 17.4204C55.757 21.3164 57.931 24.8897 57.5546 26.7262C57.2319 28.3169 56.9554 30.0843 57.8081 31.4291Z" fill="#4E311F"/>
<path d="M8.52713 25.1202C7.51308 29.7385 8.27362 34.3415 8.85746 38.9906H8.45799C7.82037 36.2165 7.12129 31.6212 7.5054 28.5782L8.05852 24.2595C8.35812 24.3594 8.59627 24.8051 8.52713 25.1202Z" fill="#372317"/>
<path d="M69.8153 15.0614L72.5271 17.4129C72.6577 18.8652 73.3875 20.21 73.8638 21.7161C76.2913 29.4544 74.3247 37.0312 70.5605 43.8319C69.6386 45.4994 68.4863 46.7827 66.9652 48.1659C65.7361 49.2725 64.891 50.3944 63.4161 50.9938C60.0743 52.3463 56.8325 54.3365 53.0605 54.8514C49.9185 55.2817 46.7535 55.7351 43.7498 55.0128C42.052 54.6055 40.0009 54.0753 38.8332 52.6921C36.59 50.0333 36.2904 45.4994 38.4184 42.71C40.6769 39.7515 45.6626 40.6275 46.2695 39.6977C46.3848 39.6746 46.5538 39.6209 46.669 39.6439C48.313 39.9897 51.7008 39.106 52.1156 40.397C52.6227 41.9569 49.3193 40.712 48.3207 42.0338C47.9442 42.5333 47.6062 43.3555 47.975 44.0087C48.1209 44.2622 48.5895 44.0317 48.7125 44.1239C48.82 44.2008 49.0351 44.3314 49.0735 44.4697C49.1196 44.6542 49.0351 44.8924 49.1042 45.0998C49.4807 46.2295 54.3972 43.8242 55.4958 43.44C56.3869 43.1326 57.5085 43.2095 57.401 42.1029C57.5239 41.9953 57.6468 41.8801 57.7774 41.7879C58.5994 42.1337 58.7991 41.3191 59.3215 40.8657C63.0243 37.6536 64.8142 33.1967 64.5761 28.1634C64.5607 27.8406 64.6452 27.5486 64.5146 27.2873C64.3994 27.0568 64.0153 27.0107 63.708 27.0338C63.5774 26.9339 63.4622 26.8186 63.37 26.6803C63.562 25.8657 62.8937 25.7428 62.0256 25.7966C61.5263 25.8273 60.8963 26.3268 61.388 27.0184C61.4264 27.5947 61.3496 28.4246 61.3342 29.024C60.5814 29.3084 60.881 33.0891 59.2831 33.0122C57.6852 32.9354 59.7824 29.5235 58.6224 23.4067C58.2844 21.6086 58.0847 19.2494 59.1755 17.6357C61.4879 14.2008 66.9114 12.5409 69.8076 15.0537L69.8153 15.0614Z" fill="#EACB92"/>
<path d="M31.5505 6.36252L31.612 13.9778C31.612 14.3313 31.612 14.6924 31.612 15.0459V38.6602C31.612 39.5439 31.658 40.4429 31.612 41.3267C31.5044 43.0941 31.6196 44.8615 31.612 46.6289V50.4788C31.612 51.9619 31.4353 53.445 31.7886 54.9511C33.3635 54.7514 34.5696 54.6976 35.8755 54.0751C34.631 52.4076 34.2469 50.6556 33.6247 48.9496C33.955 48.3502 33.4633 47.2206 33.6093 46.5597C33.8551 46.5828 33.8551 46.3446 33.8398 46.1602C33.8244 45.8989 33.8398 45.6299 33.8551 45.361C34.969 40.9501 34.7232 43.2785 36.3288 40.1663C36.6514 40.1125 37.0202 39.7283 37.097 39.4132L40.4695 37.6381C43.0199 36.2934 50.2872 37.8533 50.2949 35.0024L50.3256 25.9348C50.679 25.8886 52.0388 25.612 52.1002 26.2268L52.5535 30.5915C52.6917 31.9132 51.8774 33.1965 52.2769 34.5797C52.9606 35.2867 53.5445 36.0628 53.4907 36.985C51.6162 38.7293 49.1426 39.1673 46.6536 39.6515C46.5384 39.6284 46.377 39.6745 46.2541 39.7052C45.1402 39.9435 43.9956 39.6207 42.6435 39.8128C39.9932 40.1817 37.6194 42.4102 36.8281 44.6002C35.8679 47.2821 36.275 50.694 38.0496 52.884C37.5733 53.6678 37.6655 55.0587 36.7436 55.6812C34.2546 57.3641 29.6991 57.0183 26.5571 56.7877C25.0744 56.6725 23.9298 55.9117 23.9298 54.5746C25.3587 53.8907 26.7876 54.9281 28.3624 54.9204C28.5468 54.8359 28.6313 54.6668 28.7542 54.5208C28.8771 54.3748 29.0461 54.2826 29.1537 54.1212L29.6146 6.00903C30.2676 6.06282 30.9052 6.23957 31.5505 6.36252Z" fill="#502D18"/>
<path d="M10.3862 25.0665C10.2786 31.2448 9.74855 27.7022 10.3862 34.6259C10.8625 39.7207 12.7676 44.485 16.0018 48.1735C16.3168 48.8575 17.0235 49.3646 17.5843 49.7258C18.0837 50.0485 18.5292 50.5327 18.921 50.9707C19.4127 51.5163 20.0734 51.8313 20.4344 52.4999C20.1963 52.9456 19.6201 53.7909 18.9518 53.5987C17.3078 53.1146 16.3245 51.693 15.1337 50.6556C13.121 48.9036 12.1147 46.8288 11.2005 44.4543C10.7472 43.2709 9.3414 42.3641 9.52577 40.7043C9.60259 40.0434 8.9112 39.444 8.85742 38.9907C8.27358 34.3416 7.51305 29.7386 8.52709 25.1203C9.13398 24.8897 9.82537 24.6438 10.3862 25.0588V25.0665Z" fill="#502D18"/>
<path d="M28.2318 39.9128L28.3624 54.9204C26.7875 54.9281 25.3586 53.8984 23.9298 54.5746C23.3382 53.6525 22.1706 53.3989 21.4561 52.5536C21.3716 52.2309 20.8492 51.7775 20.8339 51.3933C22.885 47.9891 24.0988 50.7709 25.6122 47.4589C25.1666 47.2744 25.0898 47.5664 24.9438 47.674C24.3907 47.1822 24.3139 46.2985 23.9067 45.7683C23.9605 45.2688 24.0757 44.7386 24.4675 44.2084C27.8169 42.6484 26.7491 39.6669 28.2318 39.9128Z" fill="#C18749"/>
<path d="M69.8152 15.0613C66.9114 12.5485 61.4955 14.2083 59.1832 17.6432C58.0923 19.257 58.292 21.6161 58.63 23.4142C59.7901 29.531 57.6467 32.9429 59.2907 33.0198C60.9347 33.0966 60.589 29.3159 61.3418 29.0316C61.2804 32.0746 60.443 35.3558 58.1998 37.446C58.269 36.593 59.1448 35.7324 58.8836 34.5797C58.7299 33.9188 57.2012 34.2723 56.8401 34.8026C55.4727 36.7851 52.1233 38.5218 53.798 39.2365C54.1514 39.3902 54.812 39.5823 55.2883 39.3056L57.8618 37.8302C54.451 43.1632 47.5831 40.489 48.7201 44.1391C48.5895 44.0546 48.1286 44.2851 47.9826 44.0239C47.6062 43.3707 47.9519 42.5485 48.3283 42.049C49.327 40.7273 52.6226 41.9721 52.1233 40.4122C51.7084 39.1212 48.3206 39.9972 46.6766 39.6591C49.1656 39.1673 51.6393 38.737 53.5137 36.9926C54.6123 35.9706 55.9183 35.2483 56.5482 33.7959C56.9016 32.9813 57.5853 32.4204 57.8157 31.4368C59.5596 24.029 55.2422 20.2021 60.4353 15.5223C63.0012 13.2016 67.526 12.4639 69.8306 15.069L69.8152 15.0613Z" fill="#E8CC9D"/>
<path d="M16.7931 44.1778C17.062 44.1701 17.3309 44.2085 17.5921 44.2239L17.9992 44.585C18.0914 44.7464 18.2528 44.8463 18.4371 44.877C18.56 44.8924 18.6829 44.8924 18.8059 44.9001C21.341 46.5446 20.9338 47.8355 22.0477 48.1276C22.6316 48.2812 23.1386 48.8806 23.9068 48.8806C24.5752 48.8806 24.8056 48.0891 24.9439 47.6819C25.0822 47.5743 25.159 47.2746 25.6122 47.4667C24.0989 50.7787 22.8851 47.9969 20.834 51.4011C20.8493 51.7853 21.3717 52.2387 21.4562 52.5615C21.2257 52.769 20.6189 52.8458 20.4422 52.5154C20.0811 51.8468 19.4204 51.5318 18.9288 50.9862C19.4896 50.6634 18.7751 50.2946 18.5677 50.0948C18.368 49.9103 17.8379 49.7259 17.5921 49.7413C17.0313 49.3801 16.3245 48.8729 16.0096 48.189L14.9187 45.7915C16.071 45.8069 15.8867 44.2239 16.8008 44.1854L16.7931 44.1778Z" fill="#C18A4D"/>
<path d="M70.5604 43.8319C74.3247 37.0312 76.2913 29.4543 73.8637 21.7161C73.3875 20.21 72.6577 18.8652 72.5271 17.4128C77.605 25.1203 76.0685 36.8544 70.5604 43.8319Z" fill="#E8CC9D"/>
<path d="M46.2618 39.7053C45.6549 40.6351 40.6692 39.7591 38.4107 42.7176C36.2827 45.4994 36.59 50.0409 38.8255 52.6997C39.9932 54.0829 42.0443 54.6131 43.7421 55.0204C46.7458 55.7427 49.9032 55.2893 53.0528 54.859C56.8248 54.3442 60.0666 52.3539 63.4084 51.0014C59.7593 54.0906 54.8197 55.274 49.9492 55.881C45.6088 56.419 39.5784 54.7745 38.0496 52.8918C36.275 50.7017 35.8679 47.2899 36.8281 44.608C37.6194 42.4179 39.9932 40.1894 42.6435 39.8206C44.0033 39.6362 45.1479 39.9512 46.2541 39.713L46.2618 39.7053Z" fill="#E8CC9D"/>
<path d="M28.3548 15.899C25.643 16.3447 28.639 18.5963 24.3754 18.6577C23.1386 18.6731 22.355 19.7028 21.2795 19.4646C21.2719 18.3888 20.9799 17.2284 21.3256 16.022C21.8711 14.1009 23.9913 15.0537 23.8915 13.4323C23.8607 12.8944 23.8684 12.1413 23.4613 11.8416C22.332 11.0117 20.8801 12.6178 19.6663 13.148C17.8226 13.9625 17.4615 16.2832 17.5998 18.2812C17.6997 19.6567 16.0941 19.9641 15.5794 20.6787L12.906 19.1649C13.4284 17.2207 14.742 15.5993 15.8944 13.8242L17.1696 11.857C17.2618 11.711 17.4538 11.6265 17.5767 11.5112C18.4679 11.7264 18.8059 10.6736 19.5203 10.2663L22.5394 8.55271C24.1603 7.63058 26.15 7.49226 27.1564 5.94769C27.456 5.89389 27.7402 5.76326 27.9553 5.5481H28.3548V15.899Z" fill="#C18A4D"/>
<path d="M28.7542 5.15621V54.521C28.6313 54.667 28.5468 54.836 28.3624 54.9205L28.2318 39.9129C28.6006 38.2684 28.2395 36.5778 28.2472 34.9257L28.347 15.9067V5.54811C28.3163 5.4559 28.3701 5.07168 28.4853 4.92567C28.5468 4.84883 28.6927 5.05631 28.7465 5.14852L28.7542 5.15621Z" fill="#CB9C6B"/>
<path d="M29.1536 54.1214C29.0461 54.2751 28.8771 54.375 28.7542 54.521V5.15625H29.1536V54.1214Z" fill="#774E28"/>
<path d="M29.6146 6.00917L29.1537 54.1214V5.1562C29.63 4.28786 29.5992 5.648 29.6146 6.00917Z" fill="#372317"/>
<path d="M16.8084 11.8645C15.6715 13.3322 14.5806 14.8615 13.5128 16.5828C13.1133 17.2283 13.1748 18.1504 12.3835 18.3194C8.4733 19.5566 13.7663 10.7657 15.7176 11.196C16.0633 11.2728 16.455 11.5648 16.8161 11.8568L16.8084 11.8645Z" fill="#502D18"/>
<path d="M50.3411 25.9272L50.3103 34.9948C50.3027 37.8457 43.0354 36.2935 40.4849 37.6306L37.1124 39.4057C37.9421 36.0168 48.0211 36.4856 49.2195 35.7018C49.2502 35.6787 50.4717 28.4169 49.4269 27.9097C49.834 24.9666 48.5435 22.2002 47.7291 19.4108C46.0928 13.7935 41.0764 10.3585 35.7988 7.63055L32.288 5.81703L32.3572 13.1326C32.3572 13.4707 32.3188 13.7089 32.1267 13.8934C32.0115 14.0009 31.8271 14.1008 31.6274 13.9625L31.5659 6.34725C31.5659 5.80934 31.6043 5.27143 31.9116 4.57983C33.1869 5.89387 34.5696 6.30115 36.0677 7.00811C46.0544 11.7263 47.4603 15.8375 50.3488 25.9195L50.3411 25.9272Z" fill="#C08F5F"/>
<path d="M27.164 5.94775C26.1576 7.49232 24.1756 7.63064 22.547 8.55277L19.5279 10.2664C18.8135 10.6737 18.4755 11.7264 17.5844 11.5113C19.405 9.7746 21.4485 8.48361 23.876 7.46159C25.0514 6.96978 26.0654 6.25513 27.164 5.95544V5.94775Z" fill="#C08F5F"/>
<path d="M27.9553 5.54805C27.7402 5.76321 27.456 5.89385 27.1564 5.94764C27.4176 5.87848 27.6173 5.47889 27.9553 5.54805Z" fill="#CB9C6B"/>
<path d="M12.9136 19.1572C12.4296 20.9476 11.3849 22.7842 11.2466 24.6592C10.9163 29.0316 10.4246 33.4809 11.5616 37.8995L12.0455 39.7822C12.5987 41.9261 13.1518 44.3928 14.9187 45.776L16.0095 48.1735C12.7753 44.485 10.8702 39.7207 10.3939 34.6259C9.74858 27.7022 10.2786 31.2448 10.3939 25.0665L12.3912 18.3272C13.1902 18.1582 13.121 17.236 13.5205 16.5906C14.5883 14.8692 15.6792 13.34 16.8161 11.8723H17.1772L15.902 13.8242C14.7497 15.5993 13.436 17.2207 12.9136 19.1648V19.1572Z" fill="#C08F5F"/>
<path d="M63.3776 26.6957C63.4698 26.8263 63.585 26.9493 63.7156 27.0492C64.5068 32.7818 62.3866 38.3222 57.7773 41.8033C57.6467 41.9032 57.5238 42.0108 57.4009 42.1183C54.1974 43.2479 53.2448 44.7618 49.0734 44.4851C49.035 44.3468 48.8199 44.2162 48.7124 44.1393C47.5754 40.4816 54.4432 43.1634 57.8541 37.8304C57.9463 37.7766 58.0308 37.6691 58.1998 37.4539C60.443 35.3637 61.2803 32.0825 61.3418 29.0394C61.3572 28.4401 61.4263 27.6025 61.3956 27.0338C61.795 26.3729 62.7323 26.7264 63.3853 26.6957H63.3776Z" fill="#4E311F"/>
<path d="M57.7773 41.8031C62.3866 38.3221 64.5069 32.7816 63.7156 27.049C64.0229 27.026 64.407 27.0721 64.5223 27.3026C64.6529 27.5716 64.5684 27.8636 64.5837 28.1786C64.8219 33.2119 63.0319 37.6689 59.3291 40.881C58.8068 41.3344 58.5993 42.1489 57.785 41.8031H57.7773Z" fill="#E8CC9D"/>
<path d="M57.4009 42.1182C57.5085 43.2247 56.3792 43.1479 55.4958 43.4553C54.3972 43.8318 49.4883 46.2447 49.1042 45.1151C49.0351 44.9076 49.1196 44.6694 49.0735 44.485C53.2449 44.7616 54.1898 43.2478 57.4009 42.1182Z" fill="#E8CC9D"/>
<path d="M63.3776 26.6956C62.7246 26.7264 61.7874 26.3729 61.3879 27.0337C60.8963 26.3498 61.5339 25.8503 62.0255 25.8119C62.8936 25.7581 63.562 25.8811 63.3699 26.6956H63.3776Z" fill="#E8CC9D"/>
<path d="M47.7214 19.4185C47.3527 19.5107 46.1466 19.4262 46.0544 19.9717C45.7471 21.7545 45.9391 23.4374 45.87 25.0588C45.6703 24.6746 44.6101 24.4133 45.048 23.5143C45.9161 21.7238 45.1632 20.3175 44.6562 18.7576C44.2721 17.5665 43.3042 17.2515 42.2901 16.2679C41.6679 15.6685 41.9828 14.147 41.0303 13.9087C41.0072 13.7935 40.9611 13.6167 40.9918 13.5091C41.1608 12.9482 40.8459 12.4487 40.2851 12.3027L39.9163 11.9415C39.7781 11.8032 39.6321 11.6265 39.4554 11.5419C38.595 11.1347 37.6501 11.127 36.782 11.5189C36.5055 11.4651 35.9677 12.0414 35.9754 12.1183C36.0061 12.4333 36.6361 12.3181 36.7667 12.3181V12.6869C36.8973 12.8252 36.9894 13.0173 37.1431 13.1403C37.266 13.2325 37.3736 13.44 37.5118 13.5015C38.8562 14.7387 38.0112 19.0727 41.4989 19.772C41.6218 19.795 41.7831 19.7566 41.8983 19.8104C42.9738 21.5547 41.5065 25.0281 42.9124 26.4267C45.532 29.0317 42.5744 30.9758 42.7126 32.3514C42.7434 32.6357 43.0967 32.9738 43.4885 32.9277C43.9879 32.8662 44.7791 33.1813 45.3015 32.7894C47.4909 31.1449 46.8072 26.88 45.8777 25.0665C46.8303 25.9656 47.5985 27.0568 47.4909 28.7474L49.4192 27.9251C50.4639 28.4323 49.2501 35.6941 49.2117 35.7171C48.0133 36.4933 37.9343 36.0322 37.1047 39.421C37.0279 39.7361 36.6591 40.1203 36.3365 40.1741C35.1611 40.3816 32.7028 44.9231 33.8628 45.3688C33.8551 45.6301 33.8321 45.899 33.8475 46.168C33.5555 46.0988 33.6554 46.3908 33.617 46.5675C33.4787 47.2284 33.9704 48.3503 33.6323 48.9574C31.827 49.8488 37.3044 54.9205 32.9333 54.1444C31.3968 53.8678 33.1714 49.9487 31.6196 50.4866V46.6367C32.6798 48.0891 32.6951 39.8744 31.6196 41.3345C31.6734 40.4507 31.6196 39.5517 31.6196 38.668C31.8424 38.8447 32.3417 38.5988 32.3417 38.1992V15.5532C32.3417 15.0998 31.8117 14.8616 31.6196 15.0537C31.6196 14.7002 31.6196 14.3391 31.6196 13.9856C31.8194 14.1239 32.0037 14.024 32.119 13.9164C32.311 13.732 32.3494 13.4938 32.3494 13.1557L32.2803 5.84009L35.791 7.65361C41.061 10.3816 46.0851 13.8165 47.7214 19.4338V19.4185ZM35.5836 35.7479C36.1137 35.9169 36.6975 35.94 37.1815 35.8708C37.9497 35.7632 37.604 34.3724 37.8038 33.9036C38.8639 31.4292 39.0483 29.4159 38.6949 27.0952C38.5182 25.9502 38.6411 24.0522 36.7129 23.9369L36.3134 23.9139C36.3288 23.6372 36.421 23.2299 36.1137 23.0609C35.7219 22.8457 35.5375 23.3606 35.2072 23.5143C32.7873 24.6592 35.7834 26.8416 35.8755 29.0394C35.9677 31.2371 33.4249 35.0332 35.5836 35.7325V35.7479Z" fill="#C18A4D"/>
<path d="M31.6119 38.6526V15.0384C31.804 14.8463 32.3341 15.0845 32.3341 15.5379V38.1839C32.3341 38.5758 31.827 38.8294 31.6119 38.6526Z" fill="#C08F5F"/>
<path d="M31.6119 50.4711C33.1637 49.9332 31.3891 53.8522 32.9256 54.1289C37.2967 54.905 31.8193 49.8333 33.6246 48.9419C34.2392 50.6478 34.631 52.4076 35.8755 54.0674C34.5619 54.6898 33.3634 54.7436 31.7886 54.9434C31.4352 53.4373 31.6119 51.9542 31.6119 50.4711Z" fill="#C08F5F"/>
<path d="M31.6197 46.6212C31.6197 44.8538 31.5045 43.0864 31.6197 41.319C32.6952 39.8589 32.6875 48.0736 31.6197 46.6212Z" fill="#C08F5F"/>
<path d="M33.8551 45.3612C32.6951 44.9155 35.1534 40.374 36.3288 40.1665C34.7155 43.2787 34.9613 40.9503 33.8551 45.3612Z" fill="#C08F5F"/>
<path d="M33.6094 46.5521C33.6478 46.3753 33.5556 46.0833 33.8398 46.1525C33.8552 46.3369 33.8552 46.5751 33.6094 46.5521Z" fill="#C08F5F"/>
<path d="M18.921 50.9706C18.5293 50.5326 18.0837 50.0485 17.5844 49.7258C17.8302 49.7104 18.3602 49.8948 18.56 50.0792C18.7751 50.279 19.4895 50.6479 18.921 50.9706Z" fill="#C08F5F"/>
<path d="M21.5023 27.3873C21.4639 28.8857 22.7391 30.0768 23.1847 31.4447C21.9402 31.3601 20.35 32.7664 20.9492 34.042C21.3333 34.8642 22.0785 33.6731 22.355 33.335C23.7071 31.6521 25.3434 36.0937 28.2626 34.918C28.2549 36.5702 28.6083 38.2607 28.2472 39.9052C26.7646 39.6593 27.8324 42.6332 24.483 44.2008C24.0912 44.731 23.976 45.2613 23.9222 45.7607C22.9389 44.4774 21.9632 43.3017 20.2424 42.8022C18.3603 42.2566 19.4973 39.3289 17.569 37.4539C14.4117 34.3878 18.537 31.8827 17.0697 30.5917C16.4398 30.0384 15.6485 30.292 15.1799 30.9221C13.5282 33.1352 13.6665 35.771 14.5653 38.1147C12.9213 38.2607 14.2811 39.8361 12.061 39.7899L11.577 37.9073C10.44 33.4887 10.9317 29.0394 11.262 24.667C12.568 25.0973 12.7754 26.2961 13.1211 27.564C13.5052 28.9626 15.3182 29.0164 16.3245 29.6004C19.5126 31.4216 19.9659 27.3873 21.5177 27.395L21.5023 27.3873Z" fill="#C18A4D"/>
<path d="M23.9068 45.7684C24.3139 46.2986 24.3831 47.1823 24.9439 47.6741C24.8056 48.0814 24.5751 48.8729 23.9068 48.8729C23.1386 48.8729 22.6315 48.2658 22.0477 48.1198C21.2027 46.752 20.519 45.0691 18.8058 44.8923C18.6829 44.877 18.56 44.8924 18.4371 44.8693C18.3295 44.7233 18.1298 44.6926 17.9992 44.5773L17.5921 44.2161C15.6869 41.0962 17.4 42.8176 15.6331 39.3135C15.3796 38.814 15.1107 38.3068 14.5423 38.1147C13.6434 35.7709 13.4975 33.1352 15.1568 30.9221C15.6331 30.2919 16.4167 30.0307 17.0466 30.5916C18.5139 31.8826 14.3963 34.3877 17.546 37.4538C19.4742 39.3288 18.3372 42.2566 20.2194 42.8022C21.9478 43.3017 22.9158 44.4774 23.8991 45.7607L23.9068 45.7684Z" fill="#502D18"/>
<path d="M58.1998 37.4538C58.0308 37.6766 57.9463 37.7765 57.8541 37.8303L55.2806 39.3057C54.8043 39.5823 54.1436 39.3826 53.7903 39.2365C52.1156 38.5219 55.465 36.7852 56.8324 34.8026C57.1935 34.2724 58.7299 33.9189 58.8758 34.5798C59.137 35.7401 58.269 36.5931 58.1921 37.4461L58.1998 37.4538Z" fill="#EACB92"/>
<path d="M14.5422 38.1146C15.1107 38.3144 15.3873 38.8216 15.6331 39.3134C15.9096 40.9579 16.3475 42.5639 16.7931 44.1699C15.8866 44.2084 16.0633 45.7914 14.911 45.776C13.1441 44.4005 12.591 41.9338 12.0378 39.7821C14.258 39.8359 12.8982 38.2606 14.5422 38.1069V38.1146Z" fill="#C18749"/>
<path d="M17.592 44.2161C17.3231 44.2008 17.0619 44.1623 16.7931 44.17C16.3475 42.564 15.9173 40.9579 15.6331 39.3135C17.3999 42.8099 15.6868 41.0963 17.592 44.2161Z" fill="#C08F5F"/>
<path d="M22.0477 48.1198C20.9337 47.8278 21.3409 46.5368 18.8058 44.8923C20.5189 45.0691 21.2026 46.752 22.0477 48.1198Z" fill="#C08F5F"/>
<path d="M18.4371 44.8692C18.2528 44.8384 18.0915 44.7385 17.9993 44.5771C18.1299 44.6924 18.3296 44.7232 18.4371 44.8692Z" fill="#C08F5F"/>
<path d="M28.3547 15.8989L28.2548 34.9179C25.3356 36.0936 23.6993 31.652 22.3473 33.3349C22.0784 33.673 21.3256 34.8641 20.9414 34.0418C20.3422 32.7662 21.9324 31.3523 23.1769 31.4445C23.9298 31.4983 25.0744 31.4522 25.4048 30.507C25.9502 28.9394 25.3894 27.4025 25.2665 25.8426C25.2127 25.1433 25.497 24.4133 25.5046 23.8292C25.5123 23.1376 26.2344 21.985 25.0821 21.6238C24.4522 21.424 23.707 22.0541 23.2461 22.3C21.5944 23.2068 21.5407 25.5736 21.5022 27.3794C19.9428 27.3641 19.4895 31.3984 16.3091 29.5849C15.3028 29.0085 13.4898 28.9548 13.1057 27.5485C12.76 26.2806 12.5525 25.0818 11.2466 24.6515C11.3925 22.7765 12.4296 20.9399 12.9136 19.1494L15.587 20.6633C15.0492 21.401 15.1952 22.7688 15.6254 23.4527C15.7099 23.591 15.7253 23.7831 15.8789 23.7908C16.1017 23.7985 16.2861 23.7908 16.4167 23.737C16.8853 23.5526 17.5459 23.714 17.9838 23.445C18.6906 23.0147 19.3282 22.2924 19.2283 21.4548C19.3743 21.3856 19.4511 21.1704 19.5971 21.0859C20.2885 20.6863 20.8416 20.1023 21.2871 19.4491C22.3626 19.695 23.1385 18.6576 24.383 18.6423C28.6466 18.5885 25.6506 16.3369 28.3624 15.8835L28.3547 15.8989Z" fill="#C18749"/>
<path d="M23.8914 13.4322C18.6215 16.1909 22.3166 17.09 19.5971 21.1013C19.4511 21.1858 19.382 21.401 19.2284 21.4701C18.4525 21.8159 18.0607 22.6305 17.9838 23.4604C17.546 23.7293 16.8776 23.568 16.4167 23.7524C16.3706 23.568 16.2016 23.4681 16.0172 23.4681C14.3041 20.9476 18.7213 19.672 18.4064 17.1207C18.2066 15.4839 18.5907 14.1622 19.6662 13.1556C20.88 12.6177 22.3243 11.0193 23.4612 11.8492C23.8684 12.1489 23.853 12.902 23.8914 13.4399V13.4322Z" fill="#502D18"/>
<path d="M16.0172 23.4681H15.6177C15.1875 22.7842 15.0416 21.4164 15.5793 20.6787C16.1171 19.941 17.6996 19.6567 17.5997 18.2811C17.4538 16.2832 17.8225 13.9625 19.6662 13.1479C18.5907 14.1546 18.2066 15.4763 18.4064 17.1131C18.7213 19.6643 14.2964 20.9476 16.0172 23.4604V23.4681Z" fill="#C08F5F"/>
<path d="M23.8914 13.4324C23.9912 15.0538 21.871 14.1009 21.3255 16.022C20.9798 17.2285 21.2717 18.3888 21.2794 19.4646C20.8339 20.1255 20.2807 20.7018 19.5894 21.1014C22.3088 17.0978 18.6137 16.1911 23.8837 13.4324H23.8914Z" fill="#C08F5F"/>
<path d="M47.7214 19.4185C48.5357 22.2002 49.8263 24.9743 49.4192 27.9174L47.4909 28.7397C47.5908 27.0491 46.8303 25.9579 45.8777 25.0588C45.9468 23.4374 45.7548 21.7545 46.0621 19.9717C46.1542 19.4338 47.3603 19.5107 47.7291 19.4185H47.7214Z" fill="#C18749"/>
<path d="M39.4401 11.5496C39.5169 11.7494 39.7013 11.8723 39.901 11.9492L40.2698 12.3103C40.4311 12.756 40.6231 13.194 40.9765 13.5168C40.9458 13.6244 40.9919 13.8011 41.0149 13.9164C41.1993 14.8308 41.061 16.3216 41.9982 16.9594L44.6486 18.7576C45.1556 20.3175 45.9084 21.7238 45.0404 23.5142C44.6025 24.4133 45.6703 24.6746 45.8624 25.0588C46.7919 26.8723 47.4756 31.1449 45.2862 32.7817C44.7715 33.1659 43.9725 32.8508 43.4732 32.92C41.7601 30.8144 46.2926 30.4148 44.1108 27.5716C40.7 23.13 44.9712 21.2396 41.883 19.8103C41.7678 19.7565 41.6064 19.795 41.4835 19.7719C37.4658 17.3206 40.1315 14.6003 37.4965 13.5014C37.3582 13.4399 37.2507 13.2402 37.1278 13.1403C37.0509 12.9481 36.928 12.7714 36.7437 12.6869V12.318L36.7667 11.5188C37.6348 11.1346 38.5797 11.1423 39.4401 11.5419V11.5496Z" fill="#502D18"/>
<path d="M36.3135 23.9215L36.7129 23.9445L38.6949 27.1028C39.0483 29.4235 38.8639 31.4368 37.8038 33.9112C37.6041 34.38 37.9498 35.7708 37.1816 35.8784C36.6976 35.9476 36.1214 35.9245 35.5837 35.7555C34.6618 33.9496 35.7834 31.9286 36.4902 29.9768C37.3659 27.5716 32.5108 23.7063 36.3058 23.9215H36.3135Z" fill="#502D18"/>
<path d="M36.3134 23.9214C32.5185 23.6985 37.3659 27.5715 36.4978 29.9767C35.7911 31.9209 34.6695 33.9496 35.5913 35.7554C33.4326 35.0561 35.9754 31.1678 35.8832 29.0623C35.7911 26.9567 32.7873 24.6745 35.2149 23.5372C35.5452 23.3835 35.7296 22.8686 36.1214 23.0838C36.4287 23.2528 36.3365 23.6678 36.3211 23.9368L36.3134 23.9214Z" fill="#C08F5F"/>
<path d="M43.4808 32.92C43.089 32.9738 42.7357 32.628 42.7049 32.3437C42.5667 30.9759 45.5166 29.024 42.9047 26.419C41.4988 25.0205 42.9661 21.5471 41.8906 19.8027C44.9865 21.232 40.7076 23.1147 44.1184 27.564C46.3002 30.4072 41.7677 30.8068 43.4808 32.9124V32.92Z" fill="#C08F5F"/>
<path d="M44.6485 18.7577L41.9982 16.9595C41.0533 16.3217 41.1993 14.831 41.0149 13.9165C41.9752 14.1547 41.6525 15.6762 42.2748 16.2756C43.2965 17.2592 44.2568 17.5666 44.6409 18.7654L44.6485 18.7577Z" fill="#C08F5F"/>
<path d="M38.6949 27.1029L36.7129 23.9446C38.6411 24.0522 38.5182 25.9579 38.6949 27.1029Z" fill="#C08F5F"/>
<path d="M41.4912 19.772C38.0035 19.0727 38.8485 14.7387 37.5042 13.5015C40.1391 14.6003 37.4734 17.3206 41.4912 19.772Z" fill="#C08F5F"/>
<path d="M36.7513 12.3181C36.6207 12.3181 35.9908 12.4334 35.9601 12.1183C35.9601 12.0415 36.4902 11.4651 36.7667 11.5189L36.7513 12.3181Z" fill="#C08F5F"/>
<path d="M40.9765 13.5168C40.6232 13.194 40.4234 12.756 40.2698 12.3103C40.8306 12.4486 41.1455 12.9558 40.9765 13.5168Z" fill="#C08F5F"/>
<path d="M39.901 11.9416C39.7013 11.8724 39.5169 11.7495 39.4401 11.542C39.6168 11.6265 39.7627 11.8033 39.901 11.9416Z" fill="#C08F5F"/>
<path d="M37.1354 13.1401C36.9818 13.0172 36.8819 12.8251 36.7513 12.6868C36.9434 12.7713 37.0586 12.9557 37.1354 13.1401Z" fill="#C08F5F"/>
<path d="M25.5046 23.8294C25.497 24.4134 25.2127 25.1434 25.2665 25.8427C25.3894 27.4026 25.9502 28.9395 25.4048 30.5071C25.0744 31.4523 23.9298 31.4984 23.177 31.4446C22.7314 30.0691 21.4638 28.878 21.4946 27.3873C21.5407 25.5814 21.5868 23.2146 23.2384 22.3079C21.6252 24.521 21.6482 27.2028 22.8236 29.7925C23.1846 30.5917 23.2077 31.2448 24.1987 31.0835C26.7799 30.6685 23.1539 25.1742 25.497 23.8294H25.5046Z" fill="#C08F5F"/>
<path d="M25.5047 23.8294C23.1616 25.1819 26.7799 30.6762 24.2064 31.0835C23.2154 31.2449 23.1923 30.5917 22.8313 29.7925C21.6559 27.1952 21.6329 24.5133 23.2461 22.3079C23.6994 22.0543 24.4522 21.4319 25.0822 21.6317C26.2345 21.9928 25.52 23.1455 25.5047 23.8371V23.8294Z" fill="#502D18"/>
<path d="M17.9839 23.4605C18.053 22.6306 18.4448 21.816 19.2284 21.4702C19.3283 22.3078 18.6906 23.0302 17.9839 23.4605Z" fill="#C08F5F"/>
<path d="M16.4166 23.7523C16.286 23.8061 16.1017 23.8215 15.8789 23.8061C15.7252 23.8061 15.7099 23.6063 15.6254 23.468H16.0248C16.2015 23.468 16.3782 23.5679 16.4243 23.7523H16.4166Z" fill="#C18A4D"/>
<path d="M14.719 56.7956L15.7177 56.5036C21.1182 59.3008 26.3574 57.5871 30.2216 52.9918C33.763 48.7808 32.6568 42.249 29.3996 37.9457L29.1461 36.77C30.0602 37.5308 33.087 38.4145 33.3405 39.5287L35.1919 47.7588C33.8398 50.3177 30.9975 55.643 28.5238 57.2798C23.5919 60.561 17.2387 61.3909 14.719 56.788V56.7956Z" fill="#423324"/>
<path d="M0.184375 39.1982L1.36742 38.9753L2.94226 39.9359C-0.00767876 44.001 4.92426 51.1321 8.29672 52.8611L6.96002 53.6065C1.45193 51.086 -0.683707 45.1152 0.184375 39.1982Z" fill="#574938"/>
<path d="M8.30435 52.8611C9.71018 53.5834 12.8906 53.7986 14.5115 53.9753L15.7176 56.5035L14.7189 56.7955C12.0916 55.8196 9.44899 54.7361 6.97534 53.6065L8.31203 52.8611H8.30435Z" fill="#625442"/>
<path d="M15.8022 25.9042C17.3463 25.8043 20.2117 27.4871 21.2488 28.6321L21.5023 29.8078C18.4295 28.3171 14.4194 27.0184 11.3158 28.4477C8.27368 29.8463 6.20719 33.4887 5.90759 36.793C4.90891 37.669 3.67208 38.9293 2.94996 39.9282L1.37512 38.9677C4.63235 32.6127 7.60534 26.4421 15.8022 25.9042Z" fill="#3E2F1E"/>
<path d="M21.51 29.8078L21.2565 28.6321L24.8978 32.628C26.1193 33.9651 27.9937 35.817 29.146 36.7699L29.3995 37.9456C27.31 37.254 25.2819 36.5778 23.4843 35.7632L21.5177 29.8155L21.51 29.8078Z" fill="#4A3926"/>
<path d="M14.5116 53.983L15.6409 53.5527C18.2144 55.3355 22.1784 55.5968 24.5214 53.5373C27.2255 51.1629 28.3241 47.5819 29.3304 44.0163C30.6748 46.0911 31.1741 46.7213 30.452 44.5235L29.5839 40.3355C29.438 39.6132 28.0859 40.251 27.4483 40.8504L25.8504 40.8811L23.8531 38.8985C23.2846 38.3376 21.8173 38.9984 21.149 39.7207L19.3744 37.4769C19.5203 37.0389 20.5267 35.4098 21.1182 35.4789L23.469 35.7633C25.2743 36.5855 27.2947 37.2617 29.3842 37.9456C32.6414 42.2566 33.7477 48.7807 30.2062 52.9918C26.3421 57.587 21.1029 59.3007 15.7023 56.5035L14.4962 53.9754L14.5116 53.983Z" fill="#DBC5A3"/>
<path d="M2.94999 39.936C3.67211 38.9371 4.90894 37.6768 5.90761 36.8008L7.48245 37.5539L8.37358 42.0108L6.92934 44.7081C6.96775 44.6312 10.8165 49.9412 11.746 50.7788C12.4912 51.4473 14.066 49.5646 14.6499 48.5887C14.5577 49.0651 14.1659 51.3781 14.8727 51.3781H17.5998L15.6332 53.5528L14.5039 53.9832C12.8907 53.8064 9.70259 53.5913 8.29676 52.8689C4.93198 51.1322 4.673e-05 44.0011 2.94999 39.936Z" fill="#EAD9BC"/>
<path d="M21.51 29.8078L23.4767 35.7556L21.1259 35.4712C20.5267 35.4021 19.5204 37.0312 19.3821 37.4692C15.6409 36.2243 10.755 35.6249 7.49012 37.5537L5.91528 36.8007C6.21489 33.4887 8.28138 29.8539 11.3235 28.4554C14.4271 27.0261 18.4372 28.3247 21.51 29.8155V29.8078Z" fill="#E2D1B3"/>
<path d="M7.49013 37.5538C10.755 35.625 15.6409 36.2244 19.3821 37.4693L21.1567 39.7131L23.8992 45.4457L24.5291 42.5103C24.6597 41.8955 25.3742 41.2654 25.8658 40.8812L27.4637 40.8504L29.3381 44.0241C28.3318 47.5897 27.2332 51.1706 24.5291 53.5451C22.1861 55.6045 18.2221 55.3356 15.6486 53.5605L17.6152 51.3781C18.0838 50.8632 18.3988 48.8422 17.7074 48.7961L14.6653 48.5963C14.0891 49.5723 12.5066 51.4549 11.7614 50.7864C10.8319 49.9488 6.98311 44.6312 6.9447 44.7157L8.38894 42.0185L7.49782 37.5615L7.49013 37.5538ZM16.9392 42.9867C16.0864 43.1711 15.5487 44.0087 15.7331 44.8617C15.9174 45.7147 16.7548 46.2526 17.6075 46.0682C18.4602 45.8837 18.998 45.0461 18.8136 44.1932C18.6292 43.3402 17.7919 42.8023 16.9392 42.9867Z" fill="#F2E4C6"/>
<path d="M21.1489 39.7131C21.8249 38.9907 23.2846 38.3299 23.853 38.8908L25.8504 40.8734C25.3587 41.2576 24.6443 41.8878 24.5137 42.5025L23.8838 45.438L21.1412 39.7054L21.1489 39.7131Z" fill="#E2D1B3"/>
<path d="M29.3227 44.0163L27.4482 40.8427C28.0859 40.2433 29.4302 39.6055 29.5839 40.3278L30.452 44.5158C31.1741 46.7136 30.6747 46.0911 29.3304 44.0086L29.3227 44.0163Z" fill="#CBB490"/>
<path d="M14.6575 48.5886L17.6996 48.7884C18.391 48.8345 18.076 50.8478 17.6074 51.3704H14.8803C14.1812 51.3781 14.5653 49.0651 14.6575 48.5886Z" fill="#645441"/>
<path d="M17.2694 46.1064C18.1392 46.1064 18.8443 45.4011 18.8443 44.5311C18.8443 43.6611 18.1392 42.9558 17.2694 42.9558C16.3997 42.9558 15.6946 43.6611 15.6946 44.5311C15.6946 45.4011 16.3997 46.1064 17.2694 46.1064Z" fill="#6C5F4C"/>
</g>
<defs>
<clipPath id="clip0_1111_1734">
<rect width="186" height="60" fill="white"/>
</clipPath>
</defs>
</svg>
