<svg width="71" height="59" viewBox="0 0 71 59" fill="none" xmlns="http://www.w3.org/2000/svg">
<path d="M1.06235 38.9863H1.46182C1.5156 39.4397 2.20699 40.0391 2.13017 40.7C1.9458 42.3598 3.35163 43.2665 3.80488 44.45C4.71905 46.8244 5.72541 48.8992 7.73814 50.6513C8.92887 51.6887 9.91218 53.1103 11.5562 53.5944C12.2245 53.7942 12.8007 52.9412 13.0388 52.4955C13.2155 52.826 13.8301 52.7491 14.0529 52.5417C14.775 53.3869 15.935 53.6405 16.5265 54.5627C16.5265 55.8997 17.6711 56.6682 19.1538 56.7758C22.2958 57.014 26.8513 57.3521 29.3403 55.6692C30.2622 55.0468 30.17 53.6559 30.6463 52.8721C32.1673 54.7548 38.2055 56.3992 42.5459 55.8613C47.4164 55.2543 52.356 54.0785 56.005 50.9817C57.48 50.3823 58.3327 49.2604 59.5542 48.1538C61.0829 46.7706 62.2276 45.4874 63.1494 43.8198C68.6575 36.8424 70.1939 25.1083 65.1161 17.4008L62.4043 15.0493C60.0996 12.4443 55.5825 13.182 53.009 15.5027C47.8235 20.1825 52.1409 24.0094 50.3894 31.4172C49.5444 30.0724 49.8209 28.2973 50.1359 26.7143C50.5046 24.8777 48.3382 21.3045 50.6198 17.4085C49.8363 16.6016 49.0911 17.8311 48.7454 17.0703C50.0283 13.62 53.1703 11.3762 56.7809 10.8997C64.7089 9.86235 69.4872 17.1933 70.4782 24.7778C72.8366 42.8516 58.6246 58.597 40.4026 58.5586C36.9149 58.5586 33.8036 57.9669 30.7846 56.1764C17.118 61.5094 4.15826 52.5186 1.03931 38.9863H1.06235Z" fill="#472C1D"/>
<path d="M47.9925 30.5949C47.9311 31.3326 48.3075 32.0549 47.4164 33.2844C47.0937 33.7301 48.7377 33.9914 49.1448 33.7839C48.5149 35.2286 47.2013 35.9586 46.1104 36.9806C46.1565 36.0662 45.5803 35.2824 44.8966 34.5754C44.4971 33.1922 45.3115 31.9089 45.1732 30.5872L44.7199 26.2224C44.6585 25.6077 43.2987 25.8843 42.9454 25.9304C40.0569 15.8485 38.651 11.7373 28.6642 7.01906C27.1662 6.31209 25.7758 5.90482 24.5082 4.59078C24.2009 5.29006 24.1625 5.82029 24.1625 6.3582C23.5172 6.23525 22.8796 6.05851 22.2266 6.00472C22.2036 5.64355 22.2343 4.29109 21.7657 5.15174H21.3662C21.3124 5.05953 21.1665 4.85205 21.105 4.9289C20.9898 5.0749 20.936 5.45912 20.9667 5.55133H20.5673C20.2293 5.48217 20.0295 5.88176 19.7683 5.95092C18.6698 6.25062 17.6557 6.96527 16.4804 7.45707C14.0528 8.4791 12.0017 9.77008 10.1887 11.5068C10.0658 11.622 9.88141 11.7066 9.78154 11.8526H9.42048C9.05942 11.5682 8.67531 11.2762 8.32194 11.1994C6.36299 10.7691 1.07768 19.5677 4.98789 18.3228L2.99053 25.0621C2.42973 24.6471 1.73834 24.893 1.13145 25.1236C1.20059 24.8085 0.962445 24.3628 0.662842 24.2629C1.19291 20.1056 2.93676 16.2865 5.4565 12.7055C11.0107 4.80595 16.5495 6.2583 21.3278 0.771621C22.1114 -0.127456 23.4788 -0.319567 24.3162 0.617933C29.4017 6.30441 35.2863 4.9289 40.6177 12.9284C44.935 19.4064 46.0105 26.3915 45.4728 34.0068C47.1936 33.1999 47.2627 31.6938 48.0002 30.5949H47.9925Z" fill="#472C1D"/>
<path d="M50.4122 31.4247C50.1818 32.416 49.498 32.9693 49.1447 33.7838C48.7375 33.9913 47.0935 33.73 47.4162 33.2843C48.315 32.0548 47.9309 31.3248 47.9923 30.5948C48.8067 21.3581 46.1256 24.1783 48.7682 17.0779C49.1063 17.8386 49.8591 16.6091 50.6427 17.416C48.3611 21.312 50.5351 24.8853 50.1587 26.7218C49.8361 28.3125 49.5595 30.0799 50.4122 31.4247Z" fill="#4E311F"/>
<path d="M1.13137 25.1158C0.117332 29.7341 0.877863 34.3371 1.46171 38.9862H1.06223C0.424617 36.2121 -0.274458 31.6168 0.10965 28.5738L0.662763 24.2551C0.962367 24.355 1.20051 24.8007 1.13137 25.1158Z" fill="#372317"/>
<path d="M62.4194 15.057L65.1312 17.4085C65.2618 18.8608 65.9916 20.2056 66.4679 21.7117C68.8955 29.45 66.9288 37.0268 63.1646 43.8275C62.2427 45.495 61.0904 46.7783 59.5693 48.1615C58.3402 49.2681 57.4952 50.39 56.0202 50.9894C52.6785 52.3419 49.4366 54.3321 45.6647 54.847C42.5227 55.2773 39.3576 55.7307 36.3539 55.0084C34.6562 54.6011 32.605 54.0709 31.4373 52.6877C29.1942 50.0289 28.8946 45.495 31.0225 42.7056C33.2811 39.7471 38.2668 40.6231 38.8737 39.6933C38.9889 39.6702 39.1579 39.6165 39.2731 39.6395C40.9171 39.9853 44.3049 39.1016 44.7198 40.3926C45.2268 41.9525 41.9235 40.7076 40.9248 42.0294C40.5484 42.5289 40.2104 43.3511 40.5791 44.0043C40.7251 44.2579 41.1937 44.0273 41.3166 44.1195C41.4241 44.1964 41.6392 44.327 41.6776 44.4653C41.7237 44.6498 41.6392 44.888 41.7084 45.0955C42.0848 46.2251 47.0014 43.8198 48.0999 43.4356C48.991 43.1282 50.1126 43.2051 50.0051 42.0985C50.128 41.9909 50.2509 41.8757 50.3815 41.7835C51.2035 42.1293 51.4032 41.3147 51.9256 40.8613C55.6284 37.6492 57.4183 33.1923 57.1802 28.159C57.1648 27.8362 57.2493 27.5442 57.1187 27.283C57.0035 27.0524 56.6194 27.0063 56.3121 27.0294C56.1815 26.9295 56.0663 26.8142 55.9741 26.6759C56.1662 25.8613 55.4978 25.7384 54.6297 25.7922C54.1304 25.8229 53.5005 26.3224 53.9921 27.014C54.0305 27.5903 53.9537 28.4203 53.9383 29.0196C53.1855 29.304 53.4851 33.0847 51.8872 33.0079C50.2893 32.931 52.3865 29.5191 51.2265 23.4023C50.8885 21.6042 50.6888 19.245 51.7797 17.6313C54.092 14.1964 59.5156 12.5365 62.4117 15.0493L62.4194 15.057Z" fill="#EACB92"/>
<path d="M24.1549 6.35812L24.2163 13.9734C24.2163 14.3269 24.2163 14.688 24.2163 15.0415V38.6558C24.2163 39.5395 24.2624 40.4386 24.2163 41.3223C24.1088 43.0897 24.224 44.8571 24.2163 46.6245V50.4744C24.2163 51.9575 24.0396 53.4406 24.393 54.9468C25.9679 54.747 27.1739 54.6932 28.4799 54.0707C27.2354 52.4032 26.8513 50.6512 26.229 48.9452C26.5594 48.3458 26.0677 47.2162 26.2137 46.5554C26.4595 46.5784 26.4595 46.3402 26.4441 46.1558C26.4288 45.8945 26.4441 45.6255 26.4595 45.3566C27.5734 40.9457 27.3276 43.2741 28.9332 40.1619C29.2558 40.1081 29.6245 39.7239 29.7014 39.4088L33.0738 37.6337C35.6243 36.289 42.8916 37.8489 42.8993 34.998L42.93 25.9304C43.2834 25.8843 44.6431 25.6076 44.7046 26.2224L45.1578 30.5871C45.2961 31.9088 44.4818 33.1921 44.8813 34.5753C45.565 35.2823 46.1488 36.0584 46.0951 36.9806C44.2206 38.7249 41.747 39.1629 39.258 39.6471C39.1427 39.624 38.9814 39.6701 38.8585 39.7008C37.7446 39.9391 36.5999 39.6163 35.2479 39.8084C32.5975 40.1773 30.2238 42.4058 29.4325 44.5958C28.4722 47.2777 28.8794 50.6896 30.654 52.8796C30.1777 53.6635 30.2699 55.0543 29.348 55.6768C26.859 57.3597 22.3035 57.0139 19.1615 56.7833C17.6788 56.6681 16.5342 55.9073 16.5342 54.5702C17.9631 53.8863 19.3919 54.9237 20.9668 54.916C21.1511 54.8315 21.2357 54.6624 21.3586 54.5164C21.4815 54.3704 21.6505 54.2782 21.758 54.1168L22.219 6.00464C22.8719 6.05843 23.5096 6.23517 24.1549 6.35812Z" fill="#502D18"/>
<path d="M2.99042 25.0621C2.88287 31.2404 2.3528 27.6978 2.99042 34.6215C3.46671 39.7163 5.37188 44.4806 8.60606 48.1692C8.92103 48.8531 9.62779 49.3602 10.1886 49.7214C10.6879 50.0441 11.1335 50.5283 11.5253 50.9663C12.0169 51.5119 12.6776 51.8269 13.0387 52.4955C12.8005 52.9412 12.2244 53.7865 11.556 53.5944C9.91203 53.1102 8.92871 51.6886 7.73798 50.6512C5.72526 48.8992 4.7189 46.8244 3.80473 44.4499C3.35148 43.2665 1.94565 42.3597 2.13002 40.6999C2.20684 40.039 1.51545 39.4396 1.46167 38.9863C0.877829 34.3372 0.117298 29.7342 1.13134 25.1159C1.73823 24.8853 2.42962 24.6394 2.99042 25.0544V25.0621Z" fill="#502D18"/>
<path d="M20.8361 39.9084L20.9667 54.916C19.3919 54.9237 17.963 53.894 16.5341 54.5702C15.9426 53.6481 14.7749 53.3945 14.0605 52.5492C13.976 52.2265 13.4536 51.7731 13.4382 51.3889C15.4894 47.9847 16.7031 50.7665 18.2165 47.4545C17.771 47.27 17.6941 47.5621 17.5482 47.6696C16.9951 47.1778 16.9182 46.2941 16.5111 45.7639C16.5649 45.2644 16.6801 44.7342 17.0719 44.204C20.4213 42.644 19.3535 39.6625 20.8361 39.9084Z" fill="#C18749"/>
<path d="M62.4196 15.0569C59.5158 12.5441 54.0999 14.2039 51.7875 17.6388C50.6967 19.2526 50.8964 21.6117 51.2344 23.4098C52.3944 29.5266 50.2511 32.9385 51.8951 33.0154C53.5391 33.0922 53.1934 29.3115 53.9462 29.0272C53.8848 32.0702 53.0474 35.3514 50.8042 37.4416C50.8734 36.5886 51.7491 35.728 51.4879 34.5753C51.3343 33.9145 49.8055 34.2679 49.4445 34.7982C48.0771 36.7807 44.7276 38.5174 46.4024 39.2321C46.7557 39.3858 47.4164 39.5779 47.8927 39.3012L50.4662 37.8258C47.0553 43.1588 40.1875 40.4846 41.3245 44.1347C41.1939 44.0502 40.7329 44.2807 40.587 44.0195C40.2105 43.3663 40.5562 42.5441 40.9327 42.0446C41.9313 40.7229 45.227 41.9677 44.7276 40.4078C44.3128 39.1168 40.925 39.9928 39.281 39.6547C41.77 39.1629 44.2437 38.7326 46.1181 36.9882C47.2167 35.9662 48.5226 35.2439 49.1526 33.7915C49.5059 32.977 50.1896 32.416 50.4201 31.4324C52.164 24.0246 47.8466 20.1978 53.0397 15.5179C55.6056 13.1972 60.1303 12.4595 62.435 15.0646L62.4196 15.0569Z" fill="#E8CC9D"/>
<path d="M9.39739 44.1734C9.66627 44.1657 9.93514 44.2041 10.1963 44.2195L10.6035 44.5806C10.6957 44.742 10.857 44.8419 11.0414 44.8727C11.1643 44.888 11.2872 44.888 11.4101 44.8957C13.9452 46.5402 13.5381 47.8312 14.652 48.1232C15.2358 48.2769 15.7428 48.8762 16.5111 48.8762C17.1794 48.8762 17.4099 48.0847 17.5481 47.6775C17.6864 47.5699 17.7632 47.2702 18.2165 47.4623C16.7031 50.7743 15.4893 47.9925 13.4382 51.3967C13.4536 51.7809 13.9759 52.2343 14.0605 52.5571C13.83 52.7646 13.2231 52.8414 13.0464 52.511C12.6853 51.8424 12.0247 51.5274 11.533 50.9818C12.0938 50.659 11.3794 50.2902 11.172 50.0904C10.9722 49.906 10.4422 49.7215 10.1963 49.7369C9.63554 49.3757 8.92878 48.8686 8.61381 48.1846L7.52295 45.7871C8.67527 45.8025 8.4909 44.2195 9.40507 44.1811L9.39739 44.1734Z" fill="#C18A4D"/>
<path d="M63.1646 43.8275C66.9288 37.0268 68.8954 29.4499 66.4679 21.7117C65.9916 20.2056 65.2618 18.8608 65.1312 17.4084C70.2091 25.1159 68.6726 36.85 63.1646 43.8275Z" fill="#E8CC9D"/>
<path d="M38.8659 39.7009C38.2591 40.6307 33.2733 39.7547 31.0148 42.7132C28.8868 45.495 29.1941 50.0365 31.4296 52.6953C32.5973 54.0785 34.6484 54.6087 36.3462 55.016C39.3499 55.7383 42.5073 55.2849 45.657 54.8546C49.4289 54.3398 52.6707 52.3495 56.0125 50.997C52.3635 54.0862 47.4238 55.2696 42.5534 55.8766C38.213 56.4146 32.1825 54.7701 30.6537 52.8874C28.8792 50.6973 28.472 47.2855 29.4323 44.6036C30.2235 42.4135 32.5973 40.185 35.2477 39.8162C36.6074 39.6318 37.752 39.9468 38.8583 39.7086L38.8659 39.7009Z" fill="#E8CC9D"/>
<path d="M20.959 15.8946C18.2472 16.3403 21.2433 18.5919 16.9797 18.6533C15.7429 18.6687 14.9593 19.6984 13.8838 19.4602C13.8761 18.3844 13.5842 17.224 13.9299 16.0176C14.4753 14.0965 16.5956 15.0493 16.4957 13.4279C16.465 12.89 16.4727 12.1369 16.0655 11.8372C14.9362 11.0073 13.4843 12.6134 12.2705 13.1436C10.4268 13.9581 10.0658 16.2788 10.204 18.2768C10.3039 19.6523 8.69834 19.9597 8.18364 20.6743L5.51025 19.1605C6.03264 17.2163 7.34629 15.5949 8.49861 13.8198L9.77384 11.8526C9.86603 11.7066 10.0581 11.6221 10.181 11.5068C11.0721 11.722 11.4101 10.6692 12.1246 10.2619L15.1437 8.54831C16.7646 7.62618 18.7543 7.48786 19.7606 5.94329C20.0602 5.8895 20.3445 5.75887 20.5596 5.5437H20.959V15.8946Z" fill="#C18A4D"/>
<path d="M21.3586 5.15181V54.5166C21.2357 54.6626 21.1511 54.8316 20.9668 54.9162L20.8362 39.9085C21.2049 38.264 20.8439 36.5734 20.8515 34.9213L20.9514 15.9023V5.54372C20.9207 5.4515 20.9745 5.06728 21.0897 4.92128C21.1512 4.84443 21.2971 5.05191 21.3509 5.14413L21.3586 5.15181Z" fill="#CB9C6B"/>
<path d="M21.7579 54.117C21.6503 54.2707 21.4813 54.3706 21.3584 54.5166V5.15186H21.7579V54.117Z" fill="#774E28"/>
<path d="M22.2187 6.00478L21.7578 54.117V5.15181C22.2341 4.28346 22.2034 5.64361 22.2187 6.00478Z" fill="#372317"/>
<path d="M9.41279 11.8601C8.27583 13.3279 7.18497 14.8571 6.11715 16.5784C5.71768 17.2239 5.77914 18.146 4.98788 18.315C1.07767 19.5522 6.37066 10.7613 8.32193 11.1916C8.66762 11.2684 9.05941 11.5604 9.42047 11.8524L9.41279 11.8601Z" fill="#502D18"/>
<path d="M42.9453 25.9228L42.9146 34.9904C42.9069 37.8413 35.6396 36.2891 33.0891 37.6262L29.7167 39.4013C30.5463 36.0124 40.6253 36.4812 41.8237 35.6974C41.8545 35.6743 43.0759 28.4125 42.0311 27.9054C42.4383 24.9622 41.1477 22.1958 40.3334 19.4064C38.6971 13.7891 33.6807 10.3541 28.403 7.62616L24.8923 5.81263L24.9614 13.1282C24.9614 13.4663 24.923 13.7045 24.731 13.889C24.6157 13.9965 24.4314 14.0964 24.2316 13.9581L24.1702 6.34286C24.1702 5.80495 24.2086 5.26704 24.5159 4.57544C25.7911 5.88948 27.1739 6.29675 28.6719 7.00372C38.6587 11.722 40.0645 15.8331 42.953 25.9151L42.9453 25.9228Z" fill="#C08F5F"/>
<path d="M19.7684 5.94336C18.762 7.48793 16.78 7.62625 15.1514 8.54838L12.1323 10.262C11.4179 10.6693 11.0798 11.722 10.1887 11.5069C12.0094 9.7702 14.0528 8.47922 16.4804 7.45719C17.6558 6.96539 18.6698 6.25074 19.7684 5.95104V5.94336Z" fill="#C08F5F"/>
<path d="M20.5594 5.54365C20.3443 5.75882 20.0601 5.88945 19.7605 5.94324C20.0217 5.87408 20.2214 5.47449 20.5594 5.54365Z" fill="#CB9C6B"/>
<path d="M5.51799 19.1528C5.03402 20.9432 3.98924 22.7798 3.85097 24.6548C3.52063 29.0272 3.02898 33.4765 4.16593 37.8951L4.64991 39.7778C5.20302 41.9217 5.75614 44.3884 7.52303 45.7716L8.61389 48.1691C5.37971 44.4806 3.47454 39.7163 2.99825 34.6215C2.35295 27.6978 2.88302 31.2404 2.99825 25.0621L4.9956 18.3228C5.79455 18.1538 5.72541 17.2316 6.12488 16.5862C7.1927 14.8648 8.28356 13.3356 9.42052 11.8679H9.78158L8.50634 13.8198C7.35402 15.5949 6.04038 17.2163 5.51799 19.1604V19.1528Z" fill="#C08F5F"/>
<path d="M55.9819 26.6913C56.0741 26.8219 56.1894 26.9449 56.32 27.0448C57.1112 32.7774 54.9909 38.3178 50.3817 41.7989C50.2511 41.8988 50.1281 42.0064 50.0052 42.1139C46.8018 43.2436 45.8492 44.7574 41.6778 44.4807C41.6394 44.3424 41.4243 44.2118 41.3167 44.1349C40.1798 40.4772 47.0476 43.159 50.4585 37.826C50.5507 37.7722 50.6352 37.6647 50.8042 37.4495C53.0474 35.3593 53.8847 32.0781 53.9462 29.035C53.9615 28.4357 54.0307 27.5981 53.9999 27.0294C54.3994 26.3686 55.3366 26.722 55.9896 26.6913H55.9819Z" fill="#4E311F"/>
<path d="M50.3816 41.7987C54.9909 38.3177 57.1111 32.7772 56.3199 27.0446C56.6272 27.0216 57.0113 27.0677 57.1265 27.2982C57.2571 27.5672 57.1726 27.8592 57.188 28.1742C57.4261 33.2075 55.6362 37.6645 51.9334 40.8766C51.411 41.33 51.2036 42.1445 50.3893 41.7987H50.3816Z" fill="#E8CC9D"/>
<path d="M50.0052 42.1138C50.1127 43.2203 48.9834 43.1435 48.1 43.4509C47.0015 43.8274 42.0926 46.2403 41.7085 45.1107C41.6393 44.9032 41.7238 44.665 41.6777 44.4806C45.8491 44.7572 46.794 43.2434 50.0052 42.1138Z" fill="#E8CC9D"/>
<path d="M55.9818 26.6912C55.3288 26.722 54.3916 26.3685 53.9922 27.0293C53.5005 26.3454 54.1381 25.8459 54.6298 25.8075C55.4979 25.7537 56.1662 25.8767 55.9741 26.6912H55.9818Z" fill="#E8CC9D"/>
<path d="M40.3256 19.4141C39.9569 19.5063 38.7508 19.4218 38.6586 19.9674C38.3513 21.7501 38.5434 23.433 38.4742 25.0544C38.2745 24.6702 37.2144 24.409 37.6523 23.5099C38.5203 21.7194 37.7675 20.3132 37.2605 18.7532C36.8764 17.5621 35.9084 17.2471 34.8944 16.2635C34.2721 15.6641 34.5871 14.1426 33.6345 13.9043C33.6115 13.7891 33.5654 13.6123 33.5961 13.5048C33.7651 12.9438 33.4501 12.4443 32.8893 12.2983L32.5206 11.9371C32.3823 11.7988 32.2364 11.6221 32.0597 11.5375C31.1993 11.1303 30.2544 11.1226 29.3863 11.5145C29.1097 11.4607 28.572 12.037 28.5797 12.1139C28.6104 12.4289 29.2403 12.3137 29.3709 12.3137V12.6825C29.5015 12.8208 29.5937 13.0129 29.7473 13.1359C29.8703 13.2281 29.9778 13.4356 30.1161 13.4971C31.4605 14.7343 30.6154 19.0683 34.1031 19.7676C34.226 19.7906 34.3874 19.7522 34.5026 19.806C35.5781 21.5503 34.1108 25.0237 35.5166 26.4223C38.1362 29.0273 35.1786 30.9715 35.3169 32.347C35.3476 32.6313 35.701 32.9694 36.0928 32.9233C36.5921 32.8618 37.3834 33.1769 37.9058 32.785C40.0952 31.1405 39.4115 26.8757 38.4819 25.0621C39.4345 25.9612 40.2027 27.0524 40.0952 28.743L42.0234 27.9207C43.0682 28.4279 41.8544 35.6897 41.816 35.7127C40.6176 36.4889 30.5386 36.0278 29.7089 39.4166C29.6321 39.7317 29.2634 40.1159 28.9407 40.1697C27.7653 40.3772 25.3071 44.9187 26.4671 45.3644C26.4594 45.6257 26.4363 45.8946 26.4517 46.1636C26.1598 46.0944 26.2596 46.3864 26.2212 46.5632C26.083 47.224 26.5746 48.3459 26.2366 48.953C24.4313 49.8444 29.9087 54.9161 25.5375 54.14C24.0011 53.8634 25.7757 49.9443 24.2239 50.4822V46.6323C25.284 48.0847 25.2994 39.87 24.2239 41.3301C24.2777 40.4464 24.2239 39.5473 24.2239 38.6636C24.4467 38.8403 24.946 38.5944 24.946 38.1948V15.5488C24.946 15.0954 24.4159 14.8572 24.2239 15.0493C24.2239 14.6958 24.2239 14.3347 24.2239 13.9812C24.4236 14.1195 24.608 14.0196 24.7232 13.912C24.9153 13.7276 24.9537 13.4894 24.9537 13.1513L24.8845 5.83569L28.3953 7.64922C33.6652 10.3772 38.6893 13.8121 40.3256 19.4294V19.4141ZM28.1879 35.7435C28.7179 35.9125 29.3018 35.9356 29.7857 35.8664C30.554 35.7589 30.2083 34.368 30.408 33.8992C31.4681 31.4248 31.6525 29.4115 31.2991 27.0908C31.1224 25.9458 31.2454 24.0478 29.3171 23.9325L28.9177 23.9095C28.933 23.6328 29.0252 23.2255 28.7179 23.0565C28.3261 22.8413 28.1418 23.3562 27.8114 23.5099C25.3916 24.6549 28.3876 26.8372 28.4798 29.035C28.572 31.2327 26.0292 35.0288 28.1879 35.7281V35.7435Z" fill="#C18A4D"/>
<path d="M24.2163 38.6482V15.034C24.4084 14.8419 24.9384 15.0801 24.9384 15.5335V38.1795C24.9384 38.5714 24.4314 38.825 24.2163 38.6482Z" fill="#C08F5F"/>
<path d="M24.2163 50.4667C25.7681 49.9288 23.9935 53.8479 25.5299 54.1245C29.9011 54.9006 24.4237 49.8289 26.229 48.9375C26.8436 50.6434 27.2354 52.4032 28.4799 54.063C27.1662 54.6855 25.9678 54.7392 24.393 54.939C24.0396 53.4329 24.2163 51.9498 24.2163 50.4667Z" fill="#C08F5F"/>
<path d="M24.2238 46.6168C24.2238 44.8494 24.1086 43.082 24.2238 41.3146C25.2993 39.8545 25.2916 48.0692 24.2238 46.6168Z" fill="#C08F5F"/>
<path d="M26.4594 45.3568C25.2994 44.9111 27.7576 40.3696 28.933 40.1621C27.3198 43.2743 27.5656 40.9459 26.4594 45.3568Z" fill="#C08F5F"/>
<path d="M26.2136 46.5477C26.252 46.3709 26.1598 46.0789 26.4441 46.1481C26.4595 46.3325 26.4595 46.5707 26.2136 46.5477Z" fill="#C08F5F"/>
<path d="M11.5254 50.9662C11.1336 50.5282 10.6881 50.0441 10.1887 49.7214C10.4345 49.706 10.9646 49.8904 11.1644 50.0748C11.3795 50.2746 12.0939 50.6435 11.5254 50.9662Z" fill="#C08F5F"/>
<path d="M14.1064 27.3829C14.068 28.8813 15.3433 30.0724 15.7888 31.4403C14.5443 31.3557 12.9541 32.762 13.5533 34.0376C13.9374 34.8598 14.6826 33.6687 14.9591 33.3306C16.3112 31.6477 17.9475 36.0893 20.8667 34.9136C20.859 36.5658 21.2124 38.2563 20.8513 39.9008C19.3687 39.6549 20.4365 42.6288 17.0871 44.1964C16.6953 44.7266 16.5801 45.2569 16.5263 45.7563C15.543 44.473 14.5674 43.2973 12.8466 42.7978C10.9644 42.2523 12.1014 39.3245 10.1732 37.4495C7.01581 34.3834 11.1411 31.8783 9.67383 30.5873C9.0439 30.034 8.25264 30.2876 7.78403 30.9177C6.13237 33.1308 6.27064 35.7666 7.16945 38.1103C5.52548 38.2563 6.88522 39.8317 4.66508 39.7855L4.1811 37.9029C3.04414 33.4843 3.5358 29.035 3.86613 24.6626C5.1721 25.0929 5.37952 26.2917 5.72521 27.5596C6.10932 28.9582 7.9223 29.012 8.92867 29.596C12.1168 31.4172 12.57 27.3829 14.1218 27.3906L14.1064 27.3829Z" fill="#C18A4D"/>
<path d="M16.511 45.764C16.9182 46.2942 16.9873 47.1779 17.5481 47.6697C17.4098 48.077 17.1794 48.8685 16.511 48.8685C15.7428 48.8685 15.2358 48.2614 14.652 48.1154C13.8069 46.7476 13.1232 45.0647 11.4101 44.888C11.2872 44.8726 11.1643 44.888 11.0413 44.8649C10.9338 44.7189 10.7341 44.6882 10.6035 44.5729L10.1963 44.2117C8.29114 41.0919 10.0043 42.8132 8.23737 39.3091C7.98386 38.8096 7.71498 38.3024 7.1465 38.1103C6.24769 35.7665 6.10173 33.1308 7.76107 30.9177C8.23737 30.2875 9.02094 30.0263 9.65088 30.5872C11.1182 31.8782 7.00054 34.3833 10.1502 37.4494C12.0784 39.3244 10.9415 42.2522 12.8236 42.7978C14.5521 43.2973 15.52 44.473 16.5034 45.7563L16.511 45.764Z" fill="#502D18"/>
<path d="M50.8042 37.4494C50.6352 37.6722 50.5507 37.7721 50.4585 37.8259L47.885 39.3013C47.4087 39.578 46.748 39.3782 46.3946 39.2322C44.7199 38.5175 48.0693 36.7808 49.4368 34.7982C49.7978 34.268 51.3342 33.9145 51.4802 34.5754C51.7414 35.7357 50.8733 36.5887 50.7965 37.4417L50.8042 37.4494Z" fill="#EACB92"/>
<path d="M7.14647 38.1102C7.71495 38.31 7.9915 38.8172 8.23733 39.309C8.51389 40.9535 8.95177 42.5595 9.39734 44.1656C8.49084 44.204 8.66753 45.787 7.51521 45.7716C5.74832 44.3961 5.1952 41.9294 4.64209 39.7777C6.86223 39.8315 5.50249 38.2562 7.14647 38.1025V38.1102Z" fill="#C18749"/>
<path d="M10.1963 44.2117C9.92738 44.1964 9.66618 44.158 9.39731 44.1656C8.95174 42.5596 8.52154 40.9535 8.2373 39.3091C10.0042 42.8055 8.29108 41.0919 10.1963 44.2117Z" fill="#C08F5F"/>
<path d="M14.652 48.1154C13.5381 47.8234 13.9453 46.5324 11.4102 44.8879C13.1233 45.0647 13.807 46.7476 14.652 48.1154Z" fill="#C08F5F"/>
<path d="M11.0414 44.8648C10.857 44.834 10.6957 44.7341 10.6035 44.5728C10.7341 44.688 10.9338 44.7188 11.0414 44.8648Z" fill="#C08F5F"/>
<path d="M20.959 15.8945L20.8591 34.9135C17.9399 36.0892 16.3036 31.6476 14.9515 33.3305C14.6826 33.6686 13.9298 34.8597 13.5457 34.0375C12.9465 32.7618 14.5367 31.3479 15.7812 31.4401C16.534 31.4939 17.6787 31.4478 18.009 30.5026C18.5544 28.935 17.9937 27.3981 17.8707 25.8382C17.817 25.1389 18.1012 24.4089 18.1089 23.8248C18.1166 23.1332 18.8387 21.9806 17.6864 21.6194C17.0564 21.4196 16.3113 22.0497 15.8503 22.2956C14.1987 23.2024 14.1449 25.5692 14.1065 27.3751C12.547 27.3597 12.0938 31.394 8.91336 29.5805C7.907 29.0042 6.09401 28.9504 5.70991 27.5441C5.36421 26.2762 5.15679 25.0774 3.85083 24.6471C3.99679 22.7721 5.03388 20.9355 5.51785 19.145L8.19124 20.6589C7.65349 21.3966 7.79945 22.7644 8.22965 23.4483C8.31415 23.5866 8.32952 23.7787 8.48316 23.7864C8.70594 23.7941 8.89032 23.7864 9.02091 23.7326C9.48952 23.5482 10.1502 23.7096 10.5881 23.4406C11.2948 23.0103 11.9324 22.288 11.8326 21.4504C11.9785 21.3812 12.0554 21.166 12.2013 21.0815C12.8927 20.6819 13.4458 20.0979 13.8914 19.4447C14.9669 19.6906 15.7428 18.6532 16.9873 18.6379C21.2509 18.5841 18.2548 16.3325 20.9666 15.8792L20.959 15.8945Z" fill="#C18749"/>
<path d="M16.4957 13.4278C11.2257 16.1865 14.9208 17.0856 12.2013 21.0969C12.0554 21.1814 11.9862 21.3966 11.8326 21.4657C11.0567 21.8115 10.6649 22.6261 10.5881 23.456C10.1502 23.7249 9.48187 23.5636 9.02094 23.748C8.97485 23.5636 8.80584 23.4637 8.62147 23.4637C6.90835 20.9432 11.3256 19.6676 11.0106 17.1163C10.8109 15.4796 11.195 14.1578 12.2705 13.1512C13.4843 12.6133 14.9285 11.0149 16.0655 11.8448C16.4726 12.1445 16.4573 12.8976 16.4957 13.4355V13.4278Z" fill="#502D18"/>
<path d="M8.62158 23.4637H8.22211C7.79191 22.7798 7.64595 21.412 8.1837 20.6743C8.72145 19.9366 10.304 19.6523 10.2041 18.2768C10.0581 16.2788 10.4269 13.9581 12.2706 13.1436C11.1951 14.1502 10.811 15.4719 11.0107 17.1087C11.3257 19.6599 6.90078 20.9432 8.62158 23.4561V23.4637Z" fill="#C08F5F"/>
<path d="M16.4956 13.428C16.5955 15.0494 14.4752 14.0965 13.9298 16.0176C13.5841 17.2241 13.876 18.3844 13.8837 19.4603C13.4381 20.1211 12.885 20.6974 12.1936 21.097C14.9131 17.0934 11.218 16.1867 16.4879 13.428H16.4956Z" fill="#C08F5F"/>
<path d="M40.3256 19.4141C41.14 22.1958 42.4306 24.9699 42.0234 27.913L40.0952 28.7353C40.1951 27.0447 39.4345 25.9535 38.4819 25.0544C38.5511 23.433 38.359 21.7501 38.6663 19.9673C38.7585 19.4294 39.9646 19.5063 40.3333 19.4141H40.3256Z" fill="#C18749"/>
<path d="M32.0443 11.5452C32.1212 11.745 32.3055 11.8679 32.5053 11.9448L32.874 12.3059C33.0353 12.7516 33.2274 13.1897 33.5808 13.5124C33.55 13.62 33.5961 13.7967 33.6192 13.912C33.8035 14.8264 33.6653 16.3172 34.6025 16.955L37.2528 18.7532C37.7598 20.3131 38.5127 21.7194 37.6446 23.5098C37.2067 24.4089 38.2745 24.6702 38.4666 25.0544C39.3961 26.8679 40.0799 31.1405 37.8904 32.7773C37.3757 33.1615 36.5768 32.8464 36.0775 32.9156C34.3643 30.81 38.8968 30.4105 36.7151 27.5672C33.3042 23.1256 37.5755 21.2352 34.4873 19.8059C34.372 19.7522 34.2107 19.7906 34.0878 19.7675C30.07 17.3162 32.7357 14.5959 30.1007 13.497C29.9625 13.4356 29.8549 13.2358 29.732 13.1359C29.6552 12.9438 29.5323 12.767 29.3479 12.6825V12.3136L29.3709 11.5144C30.239 11.1302 31.1839 11.1379 32.0443 11.5375V11.5452Z" fill="#502D18"/>
<path d="M28.9176 23.9171L29.3171 23.9401L31.2991 27.0984C31.6524 29.4191 31.4681 31.4324 30.4079 33.9068C30.2082 34.3756 30.5539 35.7664 29.7857 35.874C29.3017 35.9432 28.7255 35.9201 28.1878 35.7511C27.2659 33.9452 28.3875 31.9242 29.0943 29.9724C29.9701 27.5672 25.1149 23.7019 28.9099 23.9171H28.9176Z" fill="#502D18"/>
<path d="M28.9176 23.917C25.1226 23.6941 29.97 27.5671 29.1019 29.9723C28.3952 31.9165 27.2736 33.9452 28.1955 35.751C26.0368 35.0517 28.5796 31.1634 28.4874 29.0579C28.3952 26.9523 25.3915 24.6701 27.819 23.5328C28.1494 23.3791 28.3337 22.8642 28.7255 23.0794C29.0328 23.2485 28.9406 23.6634 28.9253 23.9324L28.9176 23.917Z" fill="#C08F5F"/>
<path d="M36.0851 32.9157C35.6933 32.9694 35.3399 32.6236 35.3092 32.3393C35.1709 30.9715 38.1208 29.0197 35.5089 26.4146C34.1031 25.0161 35.5704 21.5427 34.4949 19.7983C37.5908 21.2276 33.3118 23.1103 36.7227 27.5596C38.9044 30.4028 34.372 30.8024 36.0851 32.908V32.9157Z" fill="#C08F5F"/>
<path d="M37.2528 18.7533L34.6025 16.9551C33.6576 16.3173 33.8035 14.8266 33.6191 13.9121C34.5794 14.1503 34.2568 15.6718 34.879 16.2712C35.9007 17.2548 36.861 17.5622 37.2451 18.761L37.2528 18.7533Z" fill="#C08F5F"/>
<path d="M31.2991 27.0985L29.3171 23.9402C31.2454 24.0478 31.1224 25.9535 31.2991 27.0985Z" fill="#C08F5F"/>
<path d="M34.0954 19.7676C30.6077 19.0683 31.4528 14.7343 30.1084 13.4971C32.7434 14.5959 30.0777 17.3162 34.0954 19.7676Z" fill="#C08F5F"/>
<path d="M29.3555 12.3137C29.2249 12.3137 28.5949 12.429 28.5642 12.1139C28.5642 12.0371 29.0943 11.4607 29.3708 11.5145L29.3555 12.3137Z" fill="#C08F5F"/>
<path d="M33.5808 13.5124C33.2274 13.1896 33.0277 12.7516 32.874 12.3059C33.4348 12.4442 33.7498 12.9514 33.5808 13.5124Z" fill="#C08F5F"/>
<path d="M32.5051 11.9372C32.3054 11.868 32.121 11.7451 32.0442 11.5376C32.2209 11.6221 32.3668 11.7989 32.5051 11.9372Z" fill="#C08F5F"/>
<path d="M29.7396 13.1358C29.5859 13.0128 29.4861 12.8207 29.3555 12.6824C29.5475 12.7669 29.6628 12.9513 29.7396 13.1358Z" fill="#C08F5F"/>
<path d="M18.109 23.825C18.1013 24.409 17.8171 25.139 17.8709 25.8383C17.9938 27.3982 18.5546 28.9351 18.0091 30.5027C17.6788 31.4479 16.5342 31.494 15.7813 31.4402C15.3358 30.0647 14.0682 28.8736 14.0989 27.3829C14.145 25.577 14.1911 23.2102 15.8428 22.3035C14.2295 24.5166 14.2526 27.1984 15.4279 29.7881C15.789 30.5873 15.8121 31.2405 16.8031 31.0791C19.3843 30.6641 15.7583 25.1698 18.1013 23.825H18.109Z" fill="#C08F5F"/>
<path d="M18.1089 23.825C15.7659 25.1775 19.3842 30.6718 16.8106 31.0791C15.8196 31.2405 15.7966 30.5873 15.4355 29.7881C14.2602 27.1908 14.2371 24.5089 15.8504 22.3035C16.3036 22.0499 17.0565 21.4275 17.6864 21.6273C18.8387 21.9884 18.1243 23.1411 18.1089 23.8327V23.825Z" fill="#502D18"/>
<path d="M10.5881 23.4561C10.6573 22.6262 11.0491 21.8116 11.8326 21.4658C11.9325 22.3034 11.2949 23.0258 10.5881 23.4561Z" fill="#C08F5F"/>
<path d="M9.021 23.7479C8.8904 23.8017 8.70603 23.8171 8.48325 23.8017C8.3296 23.8017 8.31424 23.6019 8.22974 23.4636H8.62921C8.8059 23.4636 8.98259 23.5635 9.02868 23.7479H9.021Z" fill="#C18A4D"/>
</svg>
