<svg width="64" height="64" viewBox="0 0 64 64" fill="none" xmlns="http://www.w3.org/2000/svg">
<rect width="64" height="64" rx="32" fill="#EE9D2B" fill-opacity="0.1"/>
<path d="M22.1 43.4C20.975 42.275 20.0938 40.975 19.4563 39.5C18.8188 38.025 18.5 36.5 18.5 34.925C18.5 33.35 18.8 31.7937 19.4 30.2562C20 28.7188 20.975 27.275 22.325 25.925C23.2 25.05 24.2813 24.3 25.5688 23.675C26.8562 23.05 28.3813 22.5562 30.1438 22.1937C31.9063 21.8312 33.9188 21.6125 36.1813 21.5375C38.4438 21.4625 40.975 21.55 43.775 21.8C43.975 24.45 44.0375 26.8875 43.9625 29.1125C43.8875 31.3375 43.6813 33.3437 43.3438 35.1312C43.0063 36.9187 42.5313 38.4812 41.9188 39.8187C41.3063 41.1562 40.55 42.275 39.65 43.175C38.325 44.5 36.9188 45.4687 35.4313 46.0812C33.9438 46.6938 32.425 47 30.875 47C29.25 47 27.6625 46.6812 26.1125 46.0437C24.5625 45.4062 23.225 44.525 22.1 43.4ZM26.3 42.8C27.025 43.225 27.7688 43.5312 28.5312 43.7187C29.2938 43.9062 30.075 44 30.875 44C32.025 44 33.1625 43.7687 34.2875 43.3062C35.4125 42.8438 36.4875 42.1 37.5125 41.075C37.9625 40.625 38.4188 39.9937 38.8813 39.1812C39.3438 38.3687 39.7438 37.3062 40.0813 35.9937C40.4188 34.6812 40.675 33.0937 40.85 31.2312C41.025 29.3687 41.05 27.15 40.925 24.575C39.7 24.525 38.3188 24.5062 36.7812 24.5187C35.2438 24.5312 33.7125 24.65 32.1875 24.875C30.6625 25.1 29.2125 25.4625 27.8375 25.9625C26.4625 26.4625 25.3375 27.15 24.4625 28.025C23.3375 29.15 22.5625 30.2625 22.1375 31.3625C21.7125 32.4625 21.5 33.525 21.5 34.55C21.5 36.025 21.7813 37.3187 22.3438 38.4312C22.9062 39.5437 23.4 40.325 23.825 40.775C24.875 38.775 26.2625 36.8562 27.9875 35.0187C29.7125 33.1812 31.725 31.675 34.025 30.5C32.225 32.075 30.6563 33.8562 29.3188 35.8438C27.9813 37.8312 26.975 40.15 26.3 42.8Z" fill="#4D2A17"/>
</svg>
