<svg width="64" height="64" viewBox="0 0 64 64" fill="none" xmlns="http://www.w3.org/2000/svg">
<rect width="64" height="64" rx="32" fill="#EE9D2B" fill-opacity="0.1"/>
<path d="M23 44C22.175 44 21.4688 43.7063 20.8813 43.1187C20.2937 42.5312 20 41.825 20 41C20 40.175 20.2937 39.4688 20.8813 38.8812C21.4688 38.2937 22.175 38 23 38C23.825 38 24.5312 38.2937 25.1188 38.8812C25.7063 39.4688 26 40.175 26 41C26 41.825 25.7063 42.5312 25.1188 43.1187C24.5312 43.7063 23.825 44 23 44ZM35 44C34.175 44 33.4688 43.7063 32.8813 43.1187C32.2938 42.5312 32 41.825 32 41C32 40.175 32.2938 39.4688 32.8813 38.8812C33.4688 38.2937 34.175 38 35 38C35.825 38 36.5312 38.2937 37.1188 38.8812C37.7063 39.4688 38 40.175 38 41C38 41.825 37.7063 42.5312 37.1188 43.1187C36.5312 43.7063 35.825 44 35 44ZM29 38C28.175 38 27.4688 37.7062 26.8813 37.1187C26.2938 36.5312 26 35.825 26 35C26 34.175 26.2938 33.4688 26.8813 32.8812C27.4688 32.2937 28.175 32 29 32C29.825 32 30.5312 32.2937 31.1188 32.8812C31.7063 33.4688 32 34.175 32 35C32 35.825 31.7063 36.5312 31.1188 37.1187C30.5312 37.7062 29.825 38 29 38ZM41 38C40.175 38 39.4688 37.7062 38.8813 37.1187C38.2938 36.5312 38 35.825 38 35C38 34.175 38.2938 33.4688 38.8813 32.8812C39.4688 32.2937 40.175 32 41 32C41.825 32 42.5312 32.2937 43.1188 32.8812C43.7063 33.4688 44 34.175 44 35C44 35.825 43.7063 36.5312 43.1188 37.1187C42.5312 37.7062 41.825 38 41 38ZM23 32C22.175 32 21.4688 31.7062 20.8813 31.1187C20.2937 30.5312 20 29.825 20 29C20 28.175 20.2937 27.4688 20.8813 26.8812C21.4688 26.2937 22.175 26 23 26C23.825 26 24.5312 26.2937 25.1188 26.8812C25.7063 27.4688 26 28.175 26 29C26 29.825 25.7063 30.5312 25.1188 31.1187C24.5312 31.7062 23.825 32 23 32ZM35 32C34.175 32 33.4688 31.7062 32.8813 31.1187C32.2938 30.5312 32 29.825 32 29C32 28.175 32.2938 27.4688 32.8813 26.8812C33.4688 26.2937 34.175 26 35 26C35.825 26 36.5312 26.2937 37.1188 26.8812C37.7063 27.4688 38 28.175 38 29C38 29.825 37.7063 30.5312 37.1188 31.1187C36.5312 31.7062 35.825 32 35 32ZM29 26C28.175 26 27.4688 25.7062 26.8813 25.1187C26.2938 24.5312 26 23.825 26 23C26 22.175 26.2938 21.4688 26.8813 20.8812C27.4688 20.2937 28.175 20 29 20C29.825 20 30.5312 20.2937 31.1188 20.8812C31.7063 21.4688 32 22.175 32 23C32 23.825 31.7063 24.5312 31.1188 25.1187C30.5312 25.7062 29.825 26 29 26ZM41 26C40.175 26 39.4688 25.7062 38.8813 25.1187C38.2938 24.5312 38 23.825 38 23C38 22.175 38.2938 21.4688 38.8813 20.8812C39.4688 20.2937 40.175 20 41 20C41.825 20 42.5312 20.2937 43.1188 20.8812C43.7063 21.4688 44 22.175 44 23C44 23.825 43.7063 24.5312 43.1188 25.1187C42.5312 25.7062 41.825 26 41 26Z" fill="#4D2A17"/>
</svg>
